<?xml version="1.0" encoding="UTF-8"?>
<svg id="Camada_2" xmlns="http://www.w3.org/2000/svg" viewBox="0 0 80.63 66.6" width="85">
  <defs>
    <style>
      .cls-1 {
        fill: #e58a5c;
      }
    </style>
  </defs>
  <g id="Camada_1-2" data-name="Camada_1">
    <path class="cls-1" d="M52.65,26.28h13.94c0-14.49-11.79-26.28-26.28-26.28S14.03,11.79,14.03,26.28h13.94c0-6.8,5.54-12.34,12.34-12.34s12.34,5.53,12.34,12.34M52.63,26.28h-24.64c0,6.8,5.52,12.32,12.32,12.32s12.32-5.52,12.32-12.32M80.63,26.28h-13.94c0,14.54-11.83,26.37-26.37,26.37s-26.37-11.83-26.37-26.37H0c0,22.23,18.09,40.32,40.32,40.32s40.32-18.08,40.32-40.32"/>
  </g>
</svg>