<?xml version="1.0" encoding="UTF-8"?>
<svg id="Camada_2" xmlns="http://www.w3.org/2000/svg" viewBox="0 0 58.19 58.6">
  <defs>
    <style>
      .cls-1 {
        fill: #eae9e8;
      }
    </style>
  </defs>
  <g id="Camada_1-2" data-name="Camada_1">
    <path class="cls-1" d="M27.77,57.57l-4.08-15.64c-.92-3.51-3.64-6.25-7.12-7.17L1.03,30.64c-1.37-.36-1.37-2.32,0-2.68l15.53-4.11c3.49-.92,6.21-3.66,7.12-7.17L27.77,1.03c.36-1.38,2.3-1.38,2.66,0l4.08,15.64c.92,3.51,3.64,6.25,7.12,7.17l15.53,4.11c1.37.36,1.37,2.32,0,2.68l-15.53,4.11c-3.49.92-6.21,3.66-7.12,7.17l-4.08,15.64c-.36,1.38-2.3,1.38-2.66,0"/>
  </g>
</svg>