<?xml version="1.0" encoding="UTF-8"?>
<svg id="Camada_2" xmlns="http://www.w3.org/2000/svg" xmlns:xlink="http://www.w3.org/1999/xlink" viewBox="0 0 117.42 117.42">
  <defs>
    <style>
      .cls-1 {
        fill: none;
      }

      .cls-2 {
        fill: #e68a5e;
      }

      .cls-3 {
        clip-path: url(#clippath);
      }
    </style>
    <clipPath id="clippath">
      <rect class="cls-1" width="117.42" height="117.42"/>
    </clipPath>
  </defs>
  <g id="Camada_1-2" data-name="Camada_1">
    <g class="cls-3">
      <path class="cls-2" d="M58.72,0s-.07,0-.1,0c-1.61.05-2.88,1.4-2.83,3.01l1.53,47.52c-.15.03-.31.05-.46.09-4.2-11.14-16.77-44.49-16.77-44.49-.44-1.17-1.56-1.89-2.74-1.89-.4,0-.81.08-1.2.26-1.47.67-2.12,2.4-1.46,3.87l19.6,43.32c-.13.08-.26.17-.39.26-8.14-8.69-32.52-34.69-32.52-34.69-.57-.61-1.35-.92-2.13-.92s-1.56.31-2.13.92c-1.1,1.18-1.04,3.03.13,4.13l34.69,32.52c-.09.13-.17.26-.26.39-10.85-4.91-43.32-19.6-43.32-19.6-.39-.18-.8-.26-1.2-.26-1.18,0-2.3.72-2.74,1.89-.57,1.51.19,3.2,1.7,3.76l44.49,16.77c-.03.15-.06.3-.09.46-11.9-.38-47.52-1.53-47.52-1.53-.03,0-.07,0-.1,0C1.28,55.79-.06,57.16,0,58.8c.05,1.58,1.35,2.83,2.92,2.83.03,0,.06,0,.1,0l47.52-1.53c.03.15.05.31.09.46-11.14,4.2-44.49,16.77-44.49,16.77-1.57.59-2.33,2.41-1.63,3.94.49,1.08,1.55,1.72,2.66,1.72.4,0,.81-.08,1.2-.26l43.32-19.6c.08.13.17.26.26.39-8.69,8.14-34.69,32.52-34.69,32.52-1.23,1.14-1.23,3.12,0,4.26.56.53,1.28.79,2,.79.78,0,1.56-.31,2.13-.92l32.52-34.69c.13.09.25.17.39.26-6.38,14.1-19.6,43.32-19.6,43.32-.7,1.53.06,3.35,1.63,3.94.34.13.69.19,1.03.19,1.18,0,2.29-.72,2.73-1.89l16.77-44.49c.15.03.3.06.46.09-.5,15.47-1.53,47.52-1.53,47.52-.06,1.64,1.28,3.02,2.91,3.02.04,0,.07,0,.1,0,1.61-.05,2.88-1.4,2.83-3.01l-1.53-47.52c.15-.03.31-.05.46-.09,4.2,11.14,16.77,44.49,16.77,44.49.44,1.17,1.56,1.89,2.74,1.89.4,0,.81-.08,1.2-.26,1.47-.67,2.12-2.4,1.46-3.87l-19.6-43.32c.13-.08.26-.17.39-.26,10.58,11.29,32.52,34.69,32.52,34.69.57.61,1.35.92,2.13.92s1.56-.31,2.13-.92c1.1-1.18,1.04-3.03-.13-4.13l-34.69-32.52c.09-.13.17-.25.26-.39,14.1,6.38,43.32,19.6,43.32,19.6.39.18.8.26,1.2.26,1.18,0,2.3-.72,2.74-1.89.57-1.51-.19-3.2-1.7-3.76l-44.49-16.77c.04-.15.06-.3.09-.46,15.47.5,47.52,1.53,47.52,1.53.03,0,.07,0,.1,0,1.63,0,2.97-1.37,2.91-3.02-.05-1.58-1.35-2.83-2.92-2.83-.03,0-.06,0-.1,0l-47.52,1.53c-.03-.15-.05-.31-.09-.46,11.14-4.2,44.49-16.77,44.49-16.77,1.57-.59,2.33-2.41,1.63-3.94-.49-1.08-1.55-1.72-2.66-1.72-.4,0-.81.08-1.2.26l-43.32,19.6c-.08-.13-.17-.26-.26-.39,11.29-10.58,34.69-32.52,34.69-32.52,1.23-1.14,1.23-3.12,0-4.26-.56-.53-1.28-.79-2-.79-.78,0-1.56.31-2.13.92l-32.52,34.69c-.13-.09-.26-.17-.39-.26,6.38-14.1,19.6-43.32,19.6-43.32.7-1.53-.06-3.35-1.63-3.94-.34-.13-.69-.19-1.03-.19-1.18,0-2.29.72-2.73,1.89l-16.77,44.49c-.15-.04-.3-.06-.46-.09.5-15.47,1.53-47.52,1.53-47.52C61.69,1.37,60.35,0,58.72,0"/>
    </g>
  </g>
</svg>