<?xml version="1.0" encoding="UTF-8"?>
<svg id="Camada_2" data-name="Camada 2" xmlns="http://www.w3.org/2000/svg" viewBox="0 0 40.16 36.87" width="45">
  <defs>
    <style>
      .cls-1 {
        fill: #f1e3d2;
      }

      .cls-2 {
        fill: #c9ab8d;
      }
    </style>
  </defs>
  <g id="Camada_1-2" data-name="Camada 1">
    <g>
      <path class="cls-2" d="m36.66,0H3.51C1.57,0,0,1.57,0,3.51v29.85c0,1.94,1.57,3.51,3.51,3.51h33.15c1.94,0,3.51-1.57,3.51-3.51V3.51c0-1.94-1.57-3.51-3.51-3.51"/>
      <path class="cls-1" d="m18.52,25.46c1.48,0,2.92-.38,4.21-1.11l3.56,3.56c.9.9,2.37.9,3.27,0s.9-2.37,0-3.27l-3.56-3.56c2.33-4.13.87-9.37-3.27-11.69-3.36-1.89-7.56-1.31-10.29,1.41-3.35,3.35-3.35,8.79,0,12.14,1.61,1.61,3.79,2.52,6.07,2.52m-4.56-13.15c2.52-2.52,6.6-2.52,9.12,0,2.52,2.52,2.52,6.6,0,9.12-2.52,2.52-6.6,2.52-9.12,0-1.21-1.21-1.89-2.85-1.89-4.56,0-1.71.68-3.35,1.89-4.56m4.56,8.03c-.48,0-.87-.39-.87-.87v-5.2c0-.48.39-.87.87-.87s.87.39.87.87v5.2c0,.48-.39.87-.87.87m-3.46-3.46c0-.48.39-.86.87-.86h5.2c.48,0,.87.39.87.86s-.39.87-.87.87h-5.2c-.48,0-.87-.39-.87-.87"/>
    </g>
  </g>
</svg>