<?xml version="1.0" encoding="UTF-8"?>
<svg id="Camada_2" xmlns="http://www.w3.org/2000/svg" xmlns:xlink="http://www.w3.org/1999/xlink" viewBox="0 0 714.6 157.32"  style="max-width: 365px; width: 100%;">
  <defs>
    <style>
      .cls-1-brown {
        fill: none;
      }

      .cls-2-brown {
        fill: #524639;
        fill-rule: evenodd;
      }

      .cls-3-brown {
        clip-path: url(#clippath);
      }
    </style>
    <clipPath id="clippath">
      <rect class="cls-1-brown" width="714.6" height="157.32"/>
    </clipPath>
  </defs>
  <g id="Camada_1-2" data-name="Camada_1">
    <g class="cls-3-brown">
      <path class="cls-2-brown" d="M171.38,27.12c8.88-3.22,18.5-3.77,27.85-3.04,9.15.8,18.59,3.37,25.6,9.6-.03.03-.07.07-.1.1-5.02,5.03-12.9,5.57-18.7,1.46-3.6-2.56-7.59-4.6-11.69-6.19-4.99-1.88-10.62-2.95-15.83-1.29-4.2,1.29-7.52,4.57-9.55,8.39-2.41,4.22-3.45,9.5-1.6,14.13,2.32,5.93,7.58,10.04,12.81,13.34,7.11,4.64,15.94,5.62,24.24,5.21,6.6-.82,13.37-3.13,18.2-7.87,1.19.67,2.35,1.38,3.51,2.1-6.2,6.34-14.99,9.33-23.6,10.52-9.98,1.23-20.34.92-29.96-2.24-6.65-2.23-13.09-6.2-16.7-12.39-3.43-5.75-3.62-13.27-.41-19.16,3.29-6.19,9.46-10.31,15.91-12.67M295.28,25.2c-3.35.01-6.7-.05-10.04.03-11.02,15.97-22.17,31.86-33.23,47.81,1.44.01,2.88,0,4.32-.01,3.41-5.03,6.87-10.01,10.29-15.02l1.93-2.73c2.61-3.78,5.22-7.57,7.84-11.35,4.04-5.84,12.67-5.83,16.7.02,2.6,3.77,5.2,7.55,7.79,11.33l1.93,2.73c3.43,5.01,6.93,9.97,10.32,15,5.3.08,10.6.01,15.9.04-11.25-15.95-22.51-31.89-33.76-47.84M354.94,25.2c3.06,0,6.12.01,9.18,0,9.62,13.74,19.2,27.52,28.79,41.29,9.52-13.72,18.98-27.49,28.46-41.25,3.21-.09,6.42.11,9.63.04.1,15.93.18,31.85.27,47.78-4.29,0-8.57.01-12.85,0,.06-7.38.12-14.76.17-22.14.03-4.75-6.11-6.71-8.83-2.81-4.91,7.06-9.8,14.12-14.73,21.16-.99,1.21-1.65,2.75-2.82,3.77-3.13.07-6.26.04-9.39,0-5.3-7.68-10.63-15.34-15.97-22.99-2.71-3.89-8.81-1.98-8.81,2.75,0,6.76.02,13.51,0,20.27-1.04,0-2.09,0-3.13,0,0-15.95-.01-31.9,0-47.85M476.68,41.19c0,2.86,0,5.72-.02,8.58,6.73,1.93,14.09,2.29,20.82.1,3.56-1.2,7.11-3.37,8.77-6.88,1.45-2.98.53-6.65-1.59-9.07-2.97-3.47-7.44-5.2-11.82-6.11-.05,0-.1-.02-.16-.03-8.29-1.75-16.01,4.93-16,13.41M463.91,25.06c11.92.12,23.86-1.13,35.76-.11,6.39.7,13.14,1.99,18.27,6.15,3.41,2.7,5.24,7.68,3.35,11.78-2.06,4.16-6.51,6.35-10.65,7.92-10.86,3.83-22.59,3.9-33.95,3.04,0,6.34-.04,12.69.01,19.04-4.22.07-8.44.05-12.65.01l-.13-.14c-.04-15.89-.01-31.79-.02-47.68M657.26,26.3c6.02-2.1,12.47-2.5,18.8-2.24,9.33.31,18.79,2.65,26.51,8.04-.79.75-1.58,1.5-2.37,2.25-10.07-4.96-21.54-7.32-32.71-5.76-2.69.49-5.6,1.12-7.65,3.07-1.61,1.47-1.5,4.32.28,5.61,2.16,1.62,4.88,2.16,7.45,2.81,9.72,2.18,19.92,2.83,29.03,7.19,4.2,2.01,8.48,4.95,10.06,9.55,1.25,4.02.45,8.9-2.73,11.83-2.58,2.41-6.06,3.54-9.44,4.29-6.05,1.25-12.26,1.38-18.42,1.3-10.82-.21-21.67-2.58-31.3-7.61.68-.73,1.38-1.46,2.07-2.18,11.24,4.4,23.44,5.7,35.43,5.21,3.76-.3,7.71-1.03,10.77-3.37,1.46-1.1,2.44-3.26,1.33-4.94-1.41-2.06-3.89-2.96-6.11-3.84-9.83-3.47-20.35-4.44-30.18-7.93-3.02-1.11-6.1-2.43-8.44-4.7-3.42-3.28-3.93-9.22-.95-12.95,2.14-2.76,5.33-4.46,8.56-5.63M573.27,27.31c-9.11,1.49-16.07,11.5-13.71,20.55,1.49,6.05,5.98,10.85,10.9,14.42,4.62,3.26,9.69,5.97,15.12,7.61,4.88,1.46,10.4,1.81,15.08-.51,4.33-2.14,7.52-6.25,9.08-10.77,1.61-4.69.6-9.97-2.07-14.08-3.83-6-9.95-10.08-16.17-13.28-5.6-2.78-11.91-4.97-18.24-3.95M579.83,23.93c9.4-.49,19.11.25,27.84,4,5.85,2.51,11.25,6.7,14,12.55,2.88,5.98,2.49,13.38-1.01,19.02-3.55,5.85-9.67,9.66-16.03,11.82-9.09,3.04-18.87,3.43-28.34,2.48-8.36-.97-16.95-3.5-23.28-9.28-4.75-4.26-7.62-10.7-7-17.12.44-6.37,4.24-12.12,9.35-15.79,7.07-5.14,15.91-7.09,24.48-7.67"/>
      <path class="cls-2-brown" d="M93.95,85.05c-2.65,2.69-6.25,4.59-10.08,4.63-4.76.08-9.2-2.22-12.9-5.03-5.42-4.21-10.15-9.53-12.84-15.89,4.44-5.87,7.89-12.89,8-20.38,2.14-.03,4.28.16,6.36.5,2.28.56,4.55,1.27,6.77,2.15,0,.01-.01.03-.02.04.13.04.26.07.39.1,4.49,1.82,8.67,4.39,11.82,8.11,3.55,4.06,6.92,8.81,7.37,14.35.39,4.33-1.8,8.48-4.86,11.41M38.15,76.45c7.25-1.53,13.3-6.37,18.17-11.74.66-.85,1.28-1.75,1.88-2.66-2.56-2.1-4.86-4.52-6.88-7.09-2.95-3.87-5.57-8.04-7.65-12.46-6.21-.19-12.42,1.38-18.09,3.88-4.24,1.92-8.37,4.73-10.56,8.96-1.79,3.39-1.82,7.46-.72,11.06,1.12,4.09,3.73,7.99,7.73,9.7,5.09,2.23,10.87,1.52,16.13.33M59.98,58.96c1.62-3.22,2.67-6.71,2.7-10.32-2.57.35-5.08,1.05-7.38,2.27-.45.28-.85.51-1.22.71.53.91,1.07,1.8,1.64,2.67,1.27,1.66,2.69,3.24,4.26,4.67M53.4,18.23c-3.45,4.36-4.23,10.13-4.42,15.52-.25,5.17,1.22,10.16,3.47,14.79.15-.08.27-.16.44-.25,6.77-3.75,14.85-4.06,22.35-2.9,1.84.31,3.67.7,5.49,1.14,1.44-5.63,1.43-11.6.52-17.31-.78-4.59-2.45-9.3-5.98-12.49-2.82-2.59-6.75-3.66-10.52-3.5-4.24.04-8.67,1.58-11.35,5.01M110.58,69.26c-1.47-6.07-5.86-11-10.87-14.52-2.55-1.77-5.26-3.26-8.08-4.52.34-6.73-1.64-13.46-4.49-19.51-3.56-7.36-8.21-14.37-14.54-19.64-4.62-3.82-10.43-6.66-16.55-6.41-5.85.17-11.43,3.62-14.25,8.73-3.08,5.44-3.24,12.04-1.99,18.03.04.16.09.32.12.48-5.3,1.75-10.18,4.84-14.43,8.41-6.22,5.31-11.81,11.59-15.3,19.05-2.52,5.44-3.79,11.78-2,17.63,1.65,5.61,6.4,10.14,12.06,11.56,6.04,1.59,12.47.07,17.94-2.66,4.33-2.19,8.26-5.06,11.83-8.34,4.24,4.53,9.85,7.74,15.59,10.02,7.63,2.95,15.81,4.89,24.04,4.41,5.98-.36,12.17-2.26,16.46-6.62,4.16-4.12,5.88-10.45,4.45-16.11"/>
      <path class="cls-2-brown" d="M706.59,132.42c-1.03-.62-2.32-.79-3.48-.52-1.16.3-2.34,1.12-2.6,2.35-.2.79.3,1.84,1.19,1.87,1.34-.01,2.64-.51,3.81-1.13.61-.36,1.28-.75,1.64-1.38.25-.48-.17-.95-.55-1.18M704.31,126.08c-1.54,1.72-4.11,3.07-6.18,3.98-2.47,1.09-4.65,1.92-7.21,2.77-2.66.87-5.47,1.28-8.21,1.84-.43.09-.86.16-1.3.24-.19.03-.99.03-1.1.17-1.15,1.33-2.93,2.05-4.67,1.95-.75-.11-1.35-.79-1.45-1.52-.1-1.01.34-1.98.95-2.76,2.27-2.79,5.89-4.19,7.9-7.24.62-1,1.03-2.17.94-3.35-.09-.78-.93-1.15-1.63-1.14-1.81,0-3.44.97-4.78,2.1-2.03,1.76-3.62,3.95-5.07,6.19-3.97,6.27-6.82,13.15-10.06,19.8-.61,1.15-1.15,2.37-2.04,3.33-.32.39-.89.3-1.23-.01-.68-.63-.98-1.55-1.2-2.42-.46-1.79.18-3.61.62-5.34,1.57-5.33,3.67-10.5,6.05-15.51-2.97,2.34-6.33,4.13-9.77,5.67-2.59,1.1-5.26,2.16-8.09,2.45-1.18.18-2.33-.52-2.86-1.55-.83-1.39-.62-3.08-.36-4.61.15-1.03.55-2.03.51-3.09-.64-.11-1.27-.3-1.87-.53-1.26,1.23-2.91,1.95-4.54,2.54-3.11,1.04-6.5.78-9.61-.1-.92-.18-2.07-.71-2.84.07-2.06,2.31-3.96,5.1-7.04,6.12-1.79.63-3.87.68-5.58-.25-1.89-1.04-3.31-2.97-3.61-5.11-.13-.84-.05-1.69.08-2.52-3.27,3.75-7.84,6.23-12.63,7.44-3.22.79-6.73.95-9.83-.39-1.68-.71-3.24-1.91-4.05-3.59-.5-.99-.65-2.11-.64-3.21-3.86,3.42-8.93,5.57-14.11,5.69-1.21.09-2.24-.71-3.03-1.54-1.58-1.71-2.7-3.78-4.24-5.52-.72-.78-1.59-1.55-2.67-1.71-1.27-.14-2.33.75-3.16,1.6-2.25,2.41-3.66,5.48-5.84,7.95-.68.7-1.56,1.55-2.63,1.28-1.12-.41-1.65-1.68-1.72-2.8-.06-1.75.43-3.47.98-5.12-1.87,1.45-3.54,2.91-5.63,4-2.97,1.5-6.56,2.46-9.93,2.52-1.9.03-3.95-.44-5.29-1.88-1.23-1.29-1.61-3.18-1.48-4.91.12-2.01.57-4.11,1.8-5.74.54-.75,1.61-1.33,2.48-.75,1.04.7,1.06,2.14.76,3.23-.55,2.12-1.05,4.5-.05,6.58.76,1.59,2.61,2.23,4.27,2.22,3.52.02,6.81-1.58,9.64-3.55,1.27-.87,2.44-1.88,3.61-2.88.64-.52.83-1.36,1.21-2.06.74-1.42,1.57-2.82,2.74-3.94.46-.4,1.06-.86,1.71-.69.65.24.76,1.04.79,1.65.19,2.3-1.02,4.5-.54,6.81,1.18-1.76,2.95-3,4.69-4.15,1.57-.97,3.2-1.93,5.03-2.32.9-.22,1.85.15,2.5.78,1.01.97,1.63,2.24,2.36,3.41.99,1.61,2.08,3.34,3.87,4.16,1.57.76,3.4.59,5.02.06,2.51-.81,4.76-2.27,6.82-3.89.59-.42.74-1.16,1.11-1.75,1.19-2.02,3.09-3.65,5.32-4.4,1.14-.36,3.47-.41,4.54.27,2.88,1.84,1.57,5.42-1.05,4.11-1.8-.9-2.97-.96-4.28-.35-.57.27-1.37.93-1.92,1.92-.58,1.04-.15,2.43.13,3.49.48,1.66,2.03,2.74,3.63,3.22,2.76.81,5.76.78,8.52-.02,3.76-1.07,7.15-3.14,10.21-5.51.57-.5,1.31-.89,1.6-1.64.98-2.23,2.69-4.2,4.94-5.2,1.35-.58,2.95-.84,4.33-.22.74.32,1.43.96,1.51,1.81.12.78-.34,1.5-.94,1.96-1.34,1.06-3.06,1.58-4.3,2.79-.83.78-1.27,2.07-.78,3.15.55,1.13,1.94,1.58,3.12,1.42,1.91-.2,3.89-1.36,4.48-3.27.41-1.35-.35-2.62-.79-3.84-.44-1.1-.3-2.46.47-3.38.66-.81,2.03-.74,2.67.06.67.85.89,1.95,1.27,2.94.45,1.36,1.18,2.69,2.37,3.54,1.43,1.04,3.27,1.31,5,1.32,2.86.02,5.63-1.01,8.03-2.51-.76-.42-.81-.81-1.12-1.66-.43-1.17.11-2.14.96-4.27l.75-2.56c.76-1.56.47-3.03,2.3-3.21,1.48-.24,2.94.89,3.18,2.34.21,1.5-.31,2.99-1,4.3-.24.53-.61,1.21-.19,1.75.94,1.2,2.36,2.01,3.06,3.41.47.89.12,1.93-.37,2.72-.62,1.03-1.49,2.05-1.42,3.33.05,1.21,1.32,2.02,2.46,1.89,2.6-.16,5.03-1.27,7.31-2.44,2.84-1.52,5.58-3.26,8.04-5.34.57-.51,1.16-1.04,1.56-1.71.86-1.52,1.76-3.03,2.93-4.33.48-.49,1.04-1.06,1.78-1.08.59.11.87.78.8,1.33-.15,2.49-1.11,4.84-2.11,7.1-1.54,3.33-3.31,6.55-4.89,9.86-1.27,2.72-2.45,5.54-2.89,8.54,2.73-5.92,4.92-12.33,8.42-17.83,2.04-3.13,4.27-6.38,7.16-8.76,1.82-1.5,2.99-1.67,4.49-2.29,1.38-.56,3.12-.41,4.25.61.99.95,1.18,2.46.86,3.74-.54,2.32-1.51,4.51-2.59,6.62-.8,1.49-1.73,2.96-3,4.1,5.79-.25,11.43-2.42,16.28-5.52,2.16-1.38,4.16-3.37,5.49-5.57.41-.68,1.15-1.37,2-1.19.71.16.94.98.83,1.62-.23,1.42-1.08,2.66-2.03,3.7M527.6,115.2c1.34-.01,2.64-.51,3.81-1.13.62-.37,1.28-.75,1.64-1.38.25-.48-.17-.95-.56-1.18-1.03-.62-2.31-.79-3.48-.52-1.16.3-2.33,1.12-2.6,2.35-.2.79.3,1.84,1.19,1.87"/>
    </g>
  </g>
</svg>