<?xml version="1.0" encoding="UTF-8"?>
<svg id="Camada_2" xmlns="http://www.w3.org/2000/svg" viewBox="0 0 212.52 91.74">
  <defs>
    <style>
      .cls-1 {
        fill: #53463a;
      }
    </style>
  </defs>
  <g id="Camada_1-2" data-name="Camada_1">
    <g>
      <polygon class="cls-1" points="189.42 0 174.37 37.13 176.28 37.13 189.55 3.93 198.13 25.17 199.02 27.37 202.96 37.13 206.09 37.13 202.69 28.86 201.77 26.62 190.83 0 189.42 0"/>
      <polygon class="cls-1" points="194.38 0 205.44 27.37 206.35 29.61 209.38 37.13 212.52 37.13 210.04 31.11 209.1 28.83 197.58 .82 197.24 0 194.38 0"/>
      <polygon class="cls-1" points="0 0 0 37.18 2.91 37.18 2.91 2.57 2.91 1.38 2.91 0 0 0"/>
      <path class="cls-1" d="M22.98,19.35c-1.53.41-3.34.59-5.43.59h-8.42V1.38h8.42c2.06,0,3.85.19,5.36.6,4.05,1.09,6.1,3.75,6.1,8.58,0,5.1-2.05,7.73-6.03,8.8M17.76,0H6.21v1.38h0v35.8h2.92v-15.85h8.47c9.33,0,14.48-2.92,14.48-10.72S26.99,0,17.76,0"/>
      <polygon class="cls-1" points="65.55 .09 42.61 37.18 68.98 37.18 68.98 35.75 46.77 35.75 68.77 .09 65.55 .09"/>
      <polygon class="cls-1" points="59.05 .09 36.11 37.18 39.35 37.18 62.27 .09 59.05 .09"/>
      <polygon class="cls-1" points="134.97 0 134.97 1.4 155.42 1.4 133.33 37.13 136.58 37.13 148.35 18.09 159.54 0 134.97 0"/>
      <polygon class="cls-1" points="162.86 0 139.87 37.13 141.65 37.13 161.48 37.13 166.22 37.13 166.22 35.75 161.48 35.75 144 35.75 165.53 .85 165.53 0 162.86 0"/>
      <polygon class="cls-1" points="98.41 0 83.36 37.13 85.27 37.13 98.54 3.93 107.12 25.17 108.01 27.37 111.95 37.13 115.08 37.13 111.69 28.86 110.76 26.62 99.83 0 98.41 0"/>
      <polygon class="cls-1" points="103.37 0 114.43 27.37 115.34 29.61 118.38 37.13 121.51 37.13 119.03 31.11 118.1 28.83 106.57 .82 106.23 0 103.37 0"/>
      <rect class="cls-1" x="34.63" y="90.96" width="30.2" height=".78"/>
      <path class="cls-1" d="M38.57,68.47v5.85h1.55c2.29,0,3.42-1.17,3.42-2.98,0-1.9-1.19-2.87-3.51-2.87h-1.46ZM38.57,62.87v4.92h1.44c2.01,0,2.89-.88,2.89-2.41s-.88-2.51-3.02-2.51h-1.32ZM36.01,62.2h4.13c3.6,0,5.25,1.28,5.25,3.13,0,1.57-1.11,2.52-2.49,2.74,1.54.13,3.35,1.08,3.35,3.29s-1.66,3.64-5.83,3.64h-4.41v-12.8Z"/>
      <polygon class="cls-1" points="56.21 62.2 64.79 62.2 64.79 62.91 58.76 62.91 58.76 68.08 63.73 68.08 63.73 68.8 58.76 68.8 58.76 74.28 64.99 74.28 64.99 74.99 56.21 74.99 56.21 62.2"/>
      <path class="cls-1" d="M75.8,70.41h5.28l-2.54-6.86-2.74,6.86ZM81.36,71.16h-5.85l-1.54,3.84h-.95l5.16-12.8h2.47l4.77,12.8h-2.63l-1.43-3.84Z"/>
      <path class="cls-1" d="M100.85,74.34c1.33,0,2.29-.35,3.31-1.04l.31.37c-1.35,1.11-2.76,1.52-4.55,1.52-3.89,0-6.75-2.43-6.75-6.58s2.82-6.56,6.8-6.56c1.99,0,3.18.53,4.33,1.53l-.35.35c-1.06-.77-2.05-1.02-3.22-1.02-2.87,0-4.88,2.07-4.88,5.7s2.03,5.74,4.99,5.74"/>
      <polygon class="cls-1" points="114.06 74.99 114.06 62.2 116.61 62.2 116.61 68.07 122.61 68.07 122.61 62.2 125.17 62.2 125.17 74.99 122.61 74.99 122.61 68.78 116.61 68.78 116.61 74.99 114.06 74.99"/>
    </g>
  </g>
</svg>