<?xml version="1.0" encoding="UTF-8"?>
<svg id="Camada_2" xmlns="http://www.w3.org/2000/svg" xmlns:xlink="http://www.w3.org/1999/xlink" viewBox="0 0 243.39 106.4">
  <defs>
    <style>
      .cls-1 {
        fill: none;
      }

      .cls-2 {
        clip-path: url(#clippath-1);
      }

      .cls-3 {
        clip-path: url(#clippath-3);
      }

      .cls-4 {
        clip-path: url(#clippath-4);
      }

      .cls-5 {
        clip-path: url(#clippath-2);
      }

      .cls-6 {
        clip-path: url(#clippath-6);
      }

      .cls-7 {
        clip-path: url(#clippath-5);
      }

      .cls-8 {
        fill: #FFF;
      }

      .cls-9 {
        clip-path: url(#clippath);
      }
    </style>
    <clipPath id="clippath">
      <rect class="cls-1" width="243.39" height="106.4"/>
    </clipPath>
    <clipPath id="clippath-1">
      <rect class="cls-1" width="243.39" height="106.4"/>
    </clipPath>
    <clipPath id="clippath-2">
      <rect class="cls-1" width="243.39" height="106.4"/>
    </clipPath>
    <clipPath id="clippath-3">
      <rect class="cls-1" width="243.39" height="106.4"/>
    </clipPath>
    <clipPath id="clippath-4">
      <rect class="cls-1" width="243.39" height="106.4"/>
    </clipPath>
    <clipPath id="clippath-5">
      <rect class="cls-1" width="243.39" height="106.4"/>
    </clipPath>
    <clipPath id="clippath-6">
      <rect class="cls-1" width="243.39" height="106.4"/>
    </clipPath>
  </defs>
  <g id="Camada_1-2" data-name="Camada_1">
    <g>
      <polygon class="cls-8" points="216.94 0 199.7 42.52 201.89 42.52 217.08 4.5 226.91 28.82 227.93 31.34 232.45 42.52 236.03 42.52 232.14 33.05 231.08 30.48 218.56 0 216.94 0"/>
      <polygon class="cls-8" points="222.62 0 235.29 31.34 236.33 33.91 239.8 42.52 243.39 42.52 240.55 35.63 239.48 33.02 226.28 .93 225.9 0 222.62 0"/>
      <polygon class="cls-8" points="0 0 0 42.58 3.34 42.58 3.34 2.94 3.34 1.58 3.34 0 0 0"/>
      <g class="cls-9">
        <path class="cls-8" d="M26.32,22.16c-1.75.47-3.82.68-6.22.68h-9.64V1.58h9.64c2.36,0,4.41.22,6.14.68,4.63,1.25,6.99,4.3,6.99,9.83,0,5.84-2.35,8.85-6.9,10.08M20.34,0H7.11v1.58h0v41h3.34v-18.16h9.7c10.69,0,16.58-3.34,16.58-12.28S30.91,0,20.34,0"/>
      </g>
      <polygon class="cls-8" points="75.07 .1 48.8 42.58 79 42.58 79 40.95 53.56 40.95 78.76 .1 75.07 .1"/>
      <polygon class="cls-8" points="67.62 .1 41.36 42.58 45.07 42.58 71.32 .1 67.62 .1"/>
      <polygon class="cls-8" points="154.57 0 154.57 1.6 178 1.6 152.7 42.52 156.42 42.52 169.91 20.72 182.72 0 154.57 0"/>
      <polygon class="cls-8" points="186.52 0 160.19 42.52 162.23 42.52 184.94 42.52 190.37 42.52 190.37 40.94 184.94 40.94 164.92 40.94 189.58 .97 189.58 0 186.52 0"/>
      <polygon class="cls-8" points="112.71 0 95.47 42.52 97.66 42.52 112.85 4.5 122.68 28.82 123.7 31.34 128.22 42.52 131.8 42.52 127.91 33.05 126.85 30.48 114.33 0 112.71 0"/>
      <polygon class="cls-8" points="118.39 0 131.06 31.34 132.1 33.91 135.57 42.52 139.16 42.52 136.32 35.63 135.25 33.02 122.05 .93 121.67 0 118.39 0"/>
      <rect class="cls-8" x="36.74" y="105.88" width="20.14" height=".52"/>
      <g class="cls-2">
        <path class="cls-8" d="M38.38,66.81v3.75h1c1.47,0,2.19-.75,2.19-1.91,0-1.22-.76-1.84-2.25-1.84h-.94ZM38.38,63.22v3.16h.93c1.29,0,1.85-.56,1.85-1.55s-.56-1.61-1.94-1.61h-.84ZM36.74,62.78h2.65c2.31,0,3.37.82,3.37,2.01,0,1.01-.72,1.62-1.6,1.76.99.08,2.15.69,2.15,2.11s-1.07,2.33-3.74,2.33h-2.83v-8.21Z"/>
      </g>
      <polygon class="cls-8" points="49.71 62.78 55.21 62.78 55.21 63.24 51.34 63.24 51.34 66.56 54.53 66.56 54.53 67.02 51.34 67.02 51.34 70.54 55.34 70.54 55.34 71 49.71 71 49.71 62.78"/>
      <path class="cls-8" d="M62.28,68.05h3.39l-1.63-4.4-1.76,4.4ZM65.84,68.53h-3.75l-.99,2.46h-.61l3.31-8.21h1.58l3.06,8.21h-1.69l-.92-2.46Z"/>
      <g class="cls-5">
        <path class="cls-8" d="M78.35,70.57c.86,0,1.47-.22,2.12-.67l.2.24c-.87.72-1.77.97-2.92.97-2.5,0-4.33-1.56-4.33-4.22s1.81-4.21,4.36-4.21c1.28,0,2.04.34,2.78.99l-.22.22c-.68-.49-1.31-.66-2.07-.66-1.84,0-3.13,1.33-3.13,3.66s1.3,3.68,3.2,3.68"/>
      </g>
      <polygon class="cls-8" points="86.82 71 86.82 62.78 88.47 62.78 88.47 66.55 92.31 66.55 92.31 62.78 93.96 62.78 93.96 71 92.31 71 92.31 67.01 88.47 67.01 88.47 71 86.82 71"/>
      <g class="cls-3">
        <path class="cls-8" d="M38.38,81.16v3.63h.8c1.42,0,2.19-.58,2.19-1.76s-.76-1.87-2.18-1.87h-.81ZM36.74,80.7h2.72c2.16,0,3.6.72,3.6,2.3,0,1.16-.84,1.87-2.19,2.14l2.82,3.78h-1.88l-2.69-3.66h-.74v3.66h-1.64v-8.21Z"/>
      </g>
      <polygon class="cls-8" points="49.72 80.7 55.22 80.7 55.22 81.16 51.35 81.16 51.35 84.48 54.54 84.48 54.54 84.93 51.35 84.93 51.35 88.45 55.35 88.45 55.35 88.91 49.72 88.91 49.72 80.7"/>
      <g class="cls-4">
        <path class="cls-8" d="M62.65,82.31c0,1.79,4.25,1.44,4.25,4.33,0,1.52-1.35,2.39-2.94,2.39-1.42,0-2.39-.62-2.99-1.21l.22-.22c.54.46,1.5.94,2.56.94,1.14,0,1.84-.54,1.84-1.4,0-2.13-4.27-1.81-4.27-4.41,0-1.29,1.03-2.14,2.86-2.14,1.15,0,1.83.47,2.37.96l-.23.21c-.56-.47-1.21-.69-2.04-.69-.91,0-1.62.41-1.62,1.23"/>
      </g>
      <rect class="cls-8" x="73.27" y="80.7" width="1.64" height="8.21"/>
      <g class="cls-7">
        <path class="cls-8" d="M83.53,81.16v7.3h.66c2.49,0,3.54-1.38,3.54-3.64,0-2.07-1.1-3.66-3.54-3.66h-.66ZM81.88,80.7h2.25c3.41,0,5.35,1.75,5.35,4.13s-1.97,4.08-5.35,4.08h-2.25v-8.21Z"/>
      </g>
      <polygon class="cls-8" points="95.95 80.7 101.46 80.7 101.46 81.16 97.58 81.16 97.58 84.48 100.77 84.48 100.77 84.93 97.58 84.93 97.58 88.45 101.58 88.45 101.58 88.91 95.95 88.91 95.95 80.7"/>
      <g class="cls-6">
        <path class="cls-8" d="M109.41,80.7l4.54,6.14c.11.14.2.32.28.52v-6.65h.57v8.21h-1.28l-4.31-5.71c-.27-.35-.48-.7-.63-1.04v6.76h-.59v-8.21h1.41Z"/>
        <path class="cls-8" d="M126.18,88.49c.86,0,1.47-.22,2.12-.67l.2.24c-.87.72-1.77.97-2.92.97-2.5,0-4.33-1.56-4.33-4.22s1.81-4.21,4.36-4.21c1.28,0,2.04.34,2.78.98l-.22.22c-.68-.49-1.31-.66-2.07-.66-1.84,0-3.13,1.33-3.13,3.66s1.3,3.68,3.2,3.68"/>
      </g>
      <polygon class="cls-8" points="134.65 80.7 140.16 80.7 140.16 81.16 136.28 81.16 136.28 84.48 139.47 84.48 139.47 84.93 136.28 84.93 136.28 88.45 140.28 88.45 140.28 88.91 134.65 88.91 134.65 80.7"/>
    </g>
  </g>
</svg>