<?xml version="1.0" encoding="UTF-8"?>
<svg id="Camada_2" xmlns="http://www.w3.org/2000/svg" viewBox="0 0 212.52 91.74">
  <defs>
    <style>
      .cls-1 {
        fill: #53463a;
      }
    </style>
  </defs>
  <g id="Camada_1-2" data-name="Camada_1">
    <g>
      <polygon class="cls-1" points="189.42 0 174.37 37.13 176.28 37.13 189.55 3.93 198.13 25.17 199.02 27.37 202.96 37.13 206.09 37.13 202.69 28.86 201.77 26.62 190.84 0 189.42 0"/>
      <polygon class="cls-1" points="194.38 0 205.44 27.37 206.35 29.61 209.39 37.13 212.52 37.13 210.04 31.11 209.1 28.83 197.58 .82 197.24 0 194.38 0"/>
      <polygon class="cls-1" points="0 0 0 37.18 2.91 37.18 2.91 2.57 2.91 1.38 2.91 0 0 0"/>
      <path class="cls-1" d="M22.98,19.35c-1.53.41-3.34.59-5.43.59h-8.42V1.38h8.42c2.06,0,3.85.19,5.36.6,4.05,1.09,6.1,3.75,6.1,8.58,0,5.1-2.05,7.73-6.03,8.8M17.76,0H6.21v1.38h0v35.8h2.92v-15.85h8.47c9.33,0,14.48-2.92,14.48-10.72S26.99,0,17.76,0"/>
      <polygon class="cls-1" points="65.55 .09 42.61 37.18 68.98 37.18 68.98 35.75 46.77 35.75 68.77 .09 65.55 .09"/>
      <polygon class="cls-1" points="59.05 .09 36.11 37.18 39.35 37.18 62.27 .09 59.05 .09"/>
      <polygon class="cls-1" points="134.97 0 134.97 1.4 155.43 1.4 133.33 37.13 136.58 37.13 148.35 18.09 159.54 0 134.97 0"/>
      <polygon class="cls-1" points="162.86 0 139.87 37.13 141.65 37.13 161.48 37.13 166.22 37.13 166.22 35.75 161.48 35.75 144 35.75 165.53 .85 165.53 0 162.86 0"/>
      <polygon class="cls-1" points="98.41 0 83.36 37.13 85.27 37.13 98.54 3.93 107.12 25.17 108.01 27.37 111.96 37.13 115.08 37.13 111.68 28.86 110.76 26.62 99.83 0 98.41 0"/>
      <polygon class="cls-1" points="103.37 0 114.43 27.37 115.34 29.61 118.38 37.13 121.51 37.13 119.03 31.11 118.1 28.83 106.57 .82 106.23 0 103.37 0"/>
      <rect class="cls-1" x="34.63" y="90.96" width="30.2" height=".78"/>
      <path class="cls-1" d="M34.44,68.58c0-4.32,3.14-6.39,7.28-6.39,2.77,0,3.82.95,4.68,1.84l-.38.3c-.89-.84-2.12-1.36-4.02-1.36-2.71,0-4.89,1.77-4.89,5.64,0,3.53,1.7,5.68,4.68,5.68.7,0,1.45-.07,2.16-.23v-4.09h-2.91v-.7h5.39v4.87c-.96.5-2.86.87-4.71.87-4.78,0-7.28-2.5-7.28-6.44"/>
      <path class="cls-1" d="M56.83,70.36h5.16l-2.48-6.69-2.68,6.69ZM62.25,71.1h-5.71l-1.5,3.75h-.93l5.03-12.5h2.41l4.66,12.5h-2.57l-1.39-3.75Z"/>
      <path class="cls-1" d="M77.07,63.05v5.51h1.21c2.16,0,3.34-.87,3.34-2.68s-1.16-2.84-3.32-2.84h-1.23ZM74.57,62.35h4.14c3.28,0,5.48,1.09,5.48,3.5,0,1.77-1.29,2.84-3.34,3.25l4.28,5.75h-2.86l-4.09-5.57h-1.13v5.57h-2.5v-12.49Z"/>
      <path class="cls-1" d="M96.46,63.05v11.1h1c3.78,0,5.39-2.11,5.39-5.53,0-3.14-1.68-5.57-5.39-5.57h-1ZM93.96,62.35h3.43c5.19,0,8.14,2.66,8.14,6.28s-3,6.21-8.14,6.21h-3.43v-12.49Z"/>
      <polygon class="cls-1" points="115.01 62.35 123.38 62.35 123.38 63.05 117.49 63.05 117.49 68.1 122.35 68.1 122.35 68.79 117.49 68.79 117.49 74.15 123.58 74.15 123.58 74.84 115.01 74.84 115.01 62.35"/>
      <path class="cls-1" d="M135.13,62.35l6.91,9.34c.16.21.3.48.43.79v-10.12h.87v12.49h-1.94l-6.55-8.69c-.41-.54-.73-1.07-.96-1.59v10.28h-.89v-12.49h2.14Z"/>
    </g>
  </g>
</svg>