<?xml version="1.0" encoding="UTF-8"?>
<svg id="Camada_2" data-name="Camada 2" xmlns="http://www.w3.org/2000/svg" viewBox="0 0 58.89 53.44">
  <defs>
    <style>
      .cls-1 {
        fill: none;
        stroke: #8e8572;
        stroke-miterlimit: 10;
        stroke-width: .65px;
      }
    </style>
  </defs>
  <g id="Camada_1-2" data-name="Camada 1">
    <g>
      <path class="cls-1" d="M3.97,33.04c2.6,11.87,12.97,20.07,25.55,20.07s23.64-9.34,25.88-21.67M39.95,30.25c0,6.12-4.68,11.1-10.43,11.1s-10.43-4.98-10.43-11.1c0-2.63,2.54-6.39,5.01-10.04l.76-1.13c1.91-2.85,3.65-5.55,4.66-7.13,1.01,1.58,2.75,4.28,4.66,7.13l.76,1.13c2.46,3.64,5.01,7.41,5.01,10.04Z"/>
      <polyline class="cls-1" points=".28 39.29 3.97 33.04 9.93 37.18"/>
      <path class="cls-1" d="M3.49,21.96C5.73,9.65,16.47.32,29.37.32s22.95,8.19,25.55,20.04"/>
      <polyline class="cls-1" points="58.61 14.12 54.92 20.36 48.96 16.23"/>
    </g>
  </g>
</svg>