<?xml version="1.0" encoding="UTF-8"?>
<svg id="Camada_2" data-name="Camada 2" xmlns="http://www.w3.org/2000/svg" viewBox="0 0 61.74 69.82">
  <defs>
    <style>
      .cls-1 {
        fill: none;
        stroke: #8e8572;
        stroke-linecap: round;
        stroke-linejoin: round;
        stroke-width: .65px;
      }
    </style>
  </defs>
  <g id="Camada_1-2" data-name="Camada 1">
    <path class="cls-1" d="M23.72,56.28h24.42c.77,0,1.39-.62,1.39-1.39V5.33c0-.55-.33-1.05-.83-1.27C43.06,1.57,37.02.33,30.98.33c-2.85,0-5.7.28-8.52.83M55.53,58.24c1.67,0,3.02,1.35,3.02,3.02s-1.35,3.02-3.02,3.02-3.02-1.35-3.02-3.02,1.35-3.02,3.02-3.02ZM6.21,58.24c1.67,0,3.02,1.35,3.02,3.02s-1.35,3.02-3.02,3.02-3.02-1.35-3.02-3.02,1.35-3.02,3.02-3.02ZM38.97,46.32c1.54,0,2.79,1.25,2.79,2.79s-1.25,2.79-2.79,2.79-2.79-1.25-2.79-2.79,1.25-2.79,2.79-2.79ZM22.77,46.32c1.54,0,2.79,1.25,2.79,2.79s-1.25,2.79-2.79,2.79-2.79-1.25-2.79-2.79,1.25-2.79,2.79-2.79ZM33.32,41.99v-1.03c0-1.36-1.1-2.45-2.45-2.45s-2.45,1.1-2.45,2.45v1.1M30.87,38.24v-2.24M22.77,40.53c0-4.47,3.63-8.1,8.1-8.1s8.1,3.63,8.1,8.1M23.02,21.5c2.45.1,2.53,1.67,5.15,1.67s2.7-1.67,5.4-1.67,2.7,1.54,5.09,1.66M22.77,32.08v-15.77c0-.38.31-.7.7-.7h14.81c.38,0,.7.31.7.7v25.31c0,.39-.31.7-.7.7h-14.81c-.38,0-.7-.31-.7-.7v-11.53M.33,61.26h2.49M9.41,61.26h2.68M13.15,49.1h6.7M25.75,49.1h10.25M41.96,49.1h6.77M13.42,10.7h34.89M39.38,1.16c-2.81-.56-5.66-.83-8.51-.83-6.04,0-12.07,1.24-17.72,3.73-.51.22-.83.72-.83,1.27v49.55c0,.77.62,1.39,1.39,1.39h24.42M46.84,56.4c0,3.94-3.2,7.14-7.14,7.14h-17.67c-3.94,0-7.14-3.2-7.14-7.14M38.18,63.85v5.64M34.7,69.49v-5.64M27.14,63.85v5.64M23.66,69.49v-5.64M4.52,69.49v-5.57M4.52,58.58v-3.67M4.52,56.28v-8.29c0-2.8,2.28-5.09,5.08-5.09h2.48M12.08,46.38h-2.48c-.89,0-1.61.72-1.61,1.61v10.6M7.99,63.85v5.64M61.41,61.26h-2.68M52.35,61.26h-2.7M57.22,69.49v-5.47M57.22,58.67v-10.69c0-2.8-2.28-5.09-5.08-5.09h-2.53M49.6,46.38h2.53c.89,0,1.61.72,1.61,1.61v10.69M53.74,63.93v5.57"/>
  </g>
</svg>