<?xml version="1.0" encoding="UTF-8"?>
<svg id="Camada_2" data-name="Camada 2" xmlns="http://www.w3.org/2000/svg" viewBox="0 0 64.45 52.36">
  <defs>
    <style>
      .cls-1 {
        fill: none;
        stroke: #8e8572;
        stroke-miterlimit: 10;
        stroke-width: .65px;
      }
    </style>
  </defs>
  <g id="Camada_1-2" data-name="Camada 1">
    <path class="cls-1" d="M5.12,18.89c.85-.99,1.85-1.55,2.91-1.55,3.16,0,5.71,4.98,5.71,11.13,0,4.25-1.22,7.94-3.02,9.82M10.94,18.89c-.85-.99-1.85-1.55-2.91-1.55-3.16,0-5.71,4.98-5.71,11.13,0,4.25,1.22,7.94,3.02,9.82M51.01,52.04H2.25c-1.07,0-1.93-.88-1.93-1.96s.86-1.96,1.93-1.96h59.95c1.06,0,1.92.88,1.92,1.96s-.86,1.96-1.92,1.96h-11.19ZM46.61,44.71h-28.76c-.99,0-1.8-.82-1.8-1.83v-2.09c0-1.01.8-1.83,1.8-1.83h28.76c.99,0,1.8.82,1.8,1.83v2.09c0,1.01-.8,1.83-1.8,1.83ZM43.78,38.95h-23.11v-7.33c0-.43.35-.79.77-.79h21.57c.43,0,.77.35.77.79v7.33ZM24.84,48.11h-3.85v-3.4h3.85v3.4ZM43.46,48.11h-3.85v-3.4h3.85v3.4ZM42.01.32h5.36c.14,0,.26.12.26.26v15.97c0,.14-.12.26-.26.26h-30.3c-.14,0-.26-.12-.26-.26V.59c0-.15.11-.26.26-.26h26.7M29.13,8.18c0,1.74-1.38,3.14-3.08,3.14s-3.08-1.41-3.08-3.14,1.38-3.14,3.08-3.14,3.08,1.41,3.08,3.14ZM40.9,11.32h-6.78c-.49,0-.76-.64-.46-1.08l3.39-4.95c.24-.34.69-.34.92,0l3.39,4.95c.3.44.03,1.08-.46,1.08ZM56.75,21.57v23.13M60.63,21.4h-7.77c-.32,0-.56-.29-.51-.61l1.45-8.64c.04-.25.26-.44.51-.44h4.88c.25,0,.46.18.51.44l1.45,8.64c.05.32-.19.61-.51.61ZM4.08,38.42h7.77c.32,0,.56.29.51.61l-1.45,8.64c-.04.25-.26.44-.51.44h-4.88c-.25,0-.46-.18-.51-.44l-1.45-8.64c-.05-.32.19-.61.51-.61ZM60.86,48.11h-8.21v-2.17c0-.68.54-1.23,1.21-1.23h5.8c.67,0,1.21.55,1.21,1.23v2.17Z"/>
  </g>
</svg>