<?xml version="1.0" encoding="UTF-8"?>
<svg id="Camada_2" data-name="Camada 2" xmlns="http://www.w3.org/2000/svg" viewBox="0 0 59.54 59.54">
  <defs>
    <style>
      .cls-1 {
        fill: none;
        stroke: #8e8572;
        stroke-miterlimit: 10;
        stroke-width: .65px;
      }
    </style>
  </defs>
  <g id="Camada_1-2" data-name="Camada 1">
    <path class="cls-1" d="M49.52,49.53l-4.46-4.46M54.97,51.86c0-1.72-1.39-3.11-3.11-3.11s-3.11,1.39-3.11,3.11,1.39,3.11,3.11,3.11,3.11-1.39,3.11-3.11ZM10.01,49.53l4.46-4.46M4.57,51.86c0-1.72,1.39-3.11,3.11-3.11s3.11,1.39,3.11,3.11-1.39,3.11-3.11,3.11-3.11-1.39-3.11-3.11ZM49.52,10.01l-4.46,4.46M54.97,7.68c0,1.72-1.39,3.11-3.11,3.11s-3.11-1.39-3.11-3.11,1.39-3.11,3.11-3.11,3.11,1.39,3.11,3.11ZM10.01,10.01l4.46,4.46M5.11,29.77h4.07c0,11.37,9.22,20.59,20.59,20.59v4.07M2.72,27.38c1.32,0,2.39,1.07,2.39,2.39s-1.07,2.39-2.39,2.39-2.39-1.07-2.39-2.39,1.07-2.39,2.39-2.39ZM54.43,29.77h-4.07c0-11.37-9.22-20.59-20.59-20.59v-4.07M56.82,27.38c-1.32,0-2.39,1.07-2.39,2.39s1.07,2.39,2.39,2.39,2.39-1.07,2.39-2.39-1.07-2.39-2.39-2.39ZM27.38,56.82c0-1.32,1.07-2.39,2.39-2.39s2.39,1.07,2.39,2.39-1.07,2.39-2.39,2.39-2.39-1.07-2.39-2.39ZM4.57,7.68c0,1.72,1.39,3.11,3.11,3.11s3.11-1.39,3.11-3.11-1.39-3.11-3.11-3.11-3.11,1.39-3.11,3.11ZM27.38,2.72c0,1.32,1.07,2.39,2.39,2.39s2.39-1.07,2.39-2.39-1.07-2.39-2.39-2.39-2.39,1.07-2.39,2.39ZM36.54,15.49c-2.05-.98-4.35-1.52-6.77-1.52-8.73,0-15.8,7.07-15.8,15.8s7.07,15.8,15.8,15.8,15.8-7.07,15.8-15.8c0-2.42-.55-4.72-1.52-6.77M29.78,37.85h-.01M19.18,27.27c5.85-5.85,15.32-5.85,21.17,0M22.73,30.81c3.89-3.89,10.19-3.89,14.08,0M26.25,34.33c1.94-1.94,5.1-1.94,7.04,0"/>
  </g>
</svg>