<?xml version="1.0" encoding="UTF-8"?>
<svg id="Camada_2" data-name="Camada 2" xmlns="http://www.w3.org/2000/svg" viewBox="0 0 38.84 51.74">
  <defs>
    <style>
      .cls-1 {
        fill: none;
        stroke: #8e8572;
        stroke-miterlimit: 10;
        stroke-width: .65px;
      }
    </style>
  </defs>
  <g id="Camada_1-2" data-name="Camada 1">
    <path class="cls-1" d="M19.42,51.41H.33v-3.19h19.09v3.19ZM3.51,40.32v7.9h12.73v-28.47c0-1.13.92-2.05,2.05-2.05h20.23v-4.6H5.56c-1.13,0-2.05.92-2.05,2.05v25.93M35.33,20.9h-9.55v-3.19h9.55v3.19ZM13.05,13.1h-6.37v-3.19h6.37v3.19ZM32.15,3.52V.33H3.51v6.39l3.18,3.19h6.37l3.18-3.19v-3.19M27.38,24.27v1.8M27.38,29.54v5.2M27.38,36.47v1.8M33.74,24.27v1.8M33.74,29.54v5.2M33.74,36.47v1.8M30.56,24.27v1.8M30.56,29.54v5.2M30.56,36.47v1.8M3.51,22.68h4.98M11.84,22.68h4.4v25.55H3.51M24.11,3.52H3.51V.33h28.64v3.19h-8.57"/>
  </g>
</svg>