<?xml version="1.0" encoding="UTF-8"?>
<svg id="Camada_2" data-name="Camada 2" xmlns="http://www.w3.org/2000/svg" viewBox="0 0 76.16 52.86">
  <defs>
    <style>
      .cls-1 {
        fill: #8e8572;
        stroke-width: 0px;
      }
    </style>
  </defs>
  <g id="Camada_1-2" data-name="Camada 1">
    <path class="cls-1" d="M8.28,7.81c0,.1-.04.19-.11.25l-2.41,2.38v1.97h9.32v-1.97l-2.41-2.38c-.07-.07-.11-.16-.11-.26V.72h-4.3v7.09ZM5.76,19.86h9.32v-6.73H5.76v6.73ZM20.85,17.74c0,1.17.96,2.12,2.15,2.12s2.15-.95,2.15-2.12v-4.6h-4.3v4.6ZM30.9,17.74c0,1.17.96,2.12,2.15,2.12s2.15-.95,2.15-2.12v-4.6h-4.3v4.6ZM5.76,24.83h9.32v-4.24H5.76v4.24ZM51.02,24.83h16.87v-4.24h-16.87v4.24ZM.73,29.79h49.55v-4.24H.73v4.24ZM51.02,29.79h16.87v-4.24h-16.87v4.24ZM68.62,29.79h6.81v-4.24h-6.81v4.24ZM68.62,34.73l.74.13c1.31.22,2.5.83,3.45,1.76l2.63,2.59v-8.7h-6.81v4.21ZM28.02,34.76c1.72,0,3.34.66,4.55,1.86l1.47,1.46c1.03,1.02,2.5,1.6,4.03,1.6s3-.58,4.03-1.6l1.47-1.46c1.21-1.2,2.83-1.86,4.55-1.86.35,0,.71.03,1.11.1l1.04.18v-4.52H.73v8.7l2.63-2.59c1.21-1.2,2.83-1.86,4.55-1.86s3.34.66,4.55,1.86l1.47,1.46c1.03,1.02,2.5,1.6,4.03,1.6s3-.58,4.03-1.6l1.47-1.46c1.22-1.2,2.83-1.86,4.55-1.86M51.02,35.42l.43.26c.46.28.88.59,1.24.95l1.47,1.46c1.03,1.02,2.5,1.6,4.03,1.6s3-.58,4.03-1.6l1.47-1.46c.94-.93,2.13-1.54,3.44-1.76l.74-.13v-4.21h-16.87v4.9ZM48.14,42.21c1.72,0,3.34.66,4.55,1.86l1.47,1.46c1.03,1.02,2.5,1.6,4.03,1.6s3-.58,4.03-1.6l1.47-1.46c1.21-1.2,2.83-1.86,4.55-1.86s3.34.66,4.55,1.86l2.63,2.59v-6.43l-3.14-3.1c-1.03-1.02-2.5-1.6-4.03-1.6s-3,.58-4.03,1.6l-1.47,1.46c-1.22,1.2-2.83,1.86-4.55,1.86s-3.34-.66-4.55-1.86l-1.47-1.46c-1.03-1.02-2.5-1.6-4.03-1.6s-3,.58-4.03,1.6l-1.47,1.46c-1.21,1.2-2.83,1.86-4.55,1.86s-3.33-.66-4.55-1.86l-1.47-1.46c-1.03-1.02-2.5-1.6-4.03-1.6s-3,.58-4.03,1.6l-1.47,1.46c-1.22,1.2-2.83,1.86-4.55,1.86s-3.34-.66-4.55-1.86l-1.47-1.46c-1.03-1.02-2.5-1.6-4.03-1.6s-3,.58-4.03,1.6l-3.14,3.1v6.43l2.63-2.59c1.21-1.2,2.83-1.86,4.55-1.86s3.34.66,4.55,1.86l1.47,1.46c1.03,1.02,2.5,1.6,4.03,1.6s3-.58,4.03-1.6l1.47-1.46c1.22-1.2,2.83-1.86,4.55-1.86s3.34.66,4.55,1.86l1.47,1.46c1.03,1.02,2.5,1.6,4.03,1.6s3-.58,4.03-1.6l1.47-1.46c1.21-1.2,2.83-1.86,4.55-1.86M7.91,42.98c-1.53,0-3,.59-4.03,1.6l-3.14,3.1v4.46h74.7v-4.46l-3.14-3.1c-1.03-1.02-2.5-1.6-4.03-1.6s-3,.59-4.03,1.6l-1.47,1.46c-1.22,1.2-2.83,1.86-4.55,1.86s-3.34-.66-4.55-1.86l-1.47-1.46c-1.03-1.02-2.5-1.6-4.03-1.6s-3,.59-4.03,1.6l-1.47,1.46c-1.21,1.2-2.83,1.86-4.55,1.86s-3.33-.66-4.55-1.86l-1.47-1.46c-1.03-1.02-2.5-1.6-4.03-1.6s-3,.59-4.03,1.6l-1.47,1.46c-1.22,1.2-2.83,1.86-4.55,1.86s-3.34-.66-4.55-1.86l-1.47-1.46c-1.03-1.02-2.5-1.6-4.03-1.6M.37,52.86c-.2,0-.37-.16-.37-.36v-27.31c0-.2.16-.36.37-.36h4.66v-14.54c0-.1.04-.19.11-.25l2.41-2.38V.36c0-.2.16-.36.37-.36h5.03c.2,0,.37.16.37.36v7.3l2.41,2.38c.07.07.11.16.11.25v14.54h6.81v-4.21l-.59-.21c-1.15-.4-1.92-1.48-1.92-2.67v-4.96c0-.2.16-.36.37-.36h5.03c.2,0,.37.16.37.36v4.96c0,1.19-.77,2.26-1.92,2.67l-.59.21v4.21h9.32v-4.21l-.59-.21c-1.15-.4-1.92-1.48-1.92-2.67v-4.96c0-.2.16-.36.37-.36h5.03c.2,0,.37.16.37.36v4.96c0,1.19-.77,2.26-1.92,2.67l-.59.21v4.21h16.87v-10.81c0-2.25,1.86-4.09,4.14-4.09s4.14,1.83,4.14,4.09v1.6h-.73v-1.6c0-1.85-1.53-3.36-3.41-3.36s-3.41,1.51-3.41,3.36v5.85h16.87v-5.85c0-2.25,1.86-4.09,4.14-4.09s4.14,1.83,4.14,4.09v1.6h-.73v-1.6c0-1.85-1.53-3.36-3.41-3.36s-3.41,1.51-3.41,3.36v10.81h7.18c.2,0,.37.16.37.36v27.31c0,.2-.16.36-.37.36H.37Z"/>
  </g>
</svg>