<?xml version="1.0" encoding="UTF-8"?>
<svg id="Camada_2" data-name="Camada 2" xmlns="http://www.w3.org/2000/svg" viewBox="0 0 62.13 46.69">
  <defs>
    <style>
      .cls-1 {
        fill: none;
        stroke: #8e8572;
        stroke-miterlimit: 10;
        stroke-width: .65px;
      }
    </style>
  </defs>
  <g id="Camada_1-2" data-name="Camada 1">
    <path class="cls-1" d="M49.62,25.97c4.68,0,8.47,3.74,8.47,8.37s-3.79,8.36-8.47,8.36-8.47-3.75-8.47-8.36,3.79-8.37,8.47-8.37ZM34.49.32h5.1c1.89,0,2.57,2.47.94,3.41l-5.11,2.95c-.88.51-1.18,1.63-.67,2.5l14.87,25.14M2.68,41.44c-1.48-1.99-2.36-4.45-2.36-7.11,0-6.64,5.45-12.03,12.18-12.03s12.18,5.39,12.18,12.03-5.45,12.03-12.18,12.03c-2.7,0-5.18-.86-7.2-2.33M42.41,44.03c2.02,1.46,4.51,2.33,7.2,2.33,6.73,0,12.18-5.38,12.18-12.03s-5.46-12.03-12.18-12.03-12.18,5.39-12.18,12.03c0,2.66.87,5.12,2.36,7.11M12.51,25.97c4.68,0,8.47,3.74,8.47,8.37s-3.79,8.36-8.47,8.36-8.47-3.75-8.47-8.36,3.79-8.37,8.47-8.37ZM31.06,34.33l-9.31-15.73-9.25,15.73h18.55l9.25-15.73-9.13,7.48c-1.76,1.44-4.42.98-5.58-.97M26.51,14.94h-5.57l-3.47,1.58c-.35.16-.75.25-1.16.25-1.54,0-2.78-1.23-2.78-2.75s1.25-2.75,2.78-2.75h10.2c1.03,0,1.86.82,1.86,1.83s-.83,1.83-1.86,1.83ZM52.52,8.93h-13.64l5.73,9.68h7.92v-3.67c0-1.06.42-2.09,1.23-2.79.39-.34.63-.83.63-1.37,0-1.01-.83-1.83-1.86-1.83ZM39.79,27.22c-1.48,1.99-2.36,4.45-2.36,7.11,0,6.64,5.45,12.03,12.18,12.03s12.18-5.38,12.18-12.03-5.46-12.03-12.18-12.03c-2.7,0-5.19.87-7.2,2.33M.76,31.15c.66-2.38,2.06-4.59,4.18-6.24,5.27-4.13,12.93-3.26,17.12,1.94,4.18,5.2,3.3,12.77-1.97,16.9-5.27,4.13-12.93,3.26-17.12-1.94-1.67-2.08-2.54-4.55-2.63-7.02"/>
  </g>
</svg>