<?xml version="1.0" encoding="UTF-8"?>
<svg id="Camada_2" data-name="Camada 2" xmlns="http://www.w3.org/2000/svg" viewBox="0 0 55.04 51.36">
  <defs>
    <style>
      .cls-1 {
        fill: none;
        stroke: #8e8572;
        stroke-miterlimit: 10;
        stroke-width: .66px;
      }
    </style>
  </defs>
  <g id="Camada_1-2" data-name="Camada 1">
    <path class="cls-1" d="M17.95,33.56l-13.16-2.21M4.78,45.42l9.08-1.53M12.98,44.04l5.03-.85c2.35-.39,4.07-2.43,4.07-4.81,0-.02,0-.04,0-.06M17.95,25.78v9.11c0,1.92,1.56,3.48,3.48,3.48s3.48-1.56,3.48-3.48v-6M10.49,8.9l27.92,12.49M5.43,12.35l-2.26,5.06c-.36.82,0,1.77.81,2.13l30.81,13.78M34.79,33.32l6.46,2.89c.82.36,1.77,0,2.13-.82l4.39-9.82M22.13,6.26l31.62,14.15c1.32.59,1.26,2.49-.1,2.99l-11.61,4.31c-.79.3-1.67.27-2.44-.08L4.13,11.76c-.81-.36-1.18-1.32-.82-2.13L7.05,1.29c.36-.81,1.32-1.18,2.13-.82l12.94,5.79ZM.33,50.95H.33v-25.13c2.6.57,4.45,2.87,4.45,5.53v14.07c0,2.66-1.85,4.96-4.45,5.53Z"/>
  </g>
</svg>