<?xml version="1.0" encoding="UTF-8"?>
<svg id="Camada_2" data-name="Camada 2" xmlns="http://www.w3.org/2000/svg" viewBox="0 0 55.68 52.94">
  <defs>
    <style>
      .cls-1 {
        fill: none;
        stroke: #8e8572;
        stroke-miterlimit: 10;
        stroke-width: .65px;
      }
    </style>
  </defs>
  <g id="Camada_1-2" data-name="Camada 1">
    <path class="cls-1" d="M23.73,35.42l8.16-7.01c.95-.81.37-2.37-.87-2.37h-.68c-.8,0-1.27-.9-.81-1.56l3.52-5.05c.62-.89-.02-2.12-1.1-2.12h-7.37c-.6,0-1.13.4-1.29.98l-2.02,7.22c-.24.86.4,1.71,1.3,1.71h.56c.79,0,1.33.79,1.05,1.53l-2.08,5.5c-.38,1.01.83,1.86,1.65,1.16ZM46.77,24.95h0c1,0,1.82-.81,1.82-1.82v-3.84c0-1-.81-1.82-1.82-1.82s-1.82.81-1.82,1.82v3.84c0,1,.81,1.82,1.82,1.82ZM34.21.32h0c-.69,0-1.25.56-1.25,1.25v5.75c0,.69.56,1.25,1.25,1.25s1.25-.56,1.25-1.25V1.58c0-.69-.56-1.25-1.25-1.25ZM47.74,46.65c-.76,0-1.45-.52-1.62-1.3l-4.75-21.2-1.67-7.46c-.2-.9.36-1.79,1.26-1.99.9-.2,1.78.36,1.98,1.26l6.43,28.66c.2.9-.36,1.78-1.26,1.99-.12.03-.24.04-.36.04ZM42.59,29.63l-9.86,13.69H7.94c-.92,0-1.66.74-1.66,1.66s.74,1.66,1.66,1.66h25.65c.53,0,1.03-.26,1.35-.69l8.63-11.99M32.96,5.86h-6.12c-.73,0-1.33-.59-1.33-1.33s.59-1.33,1.33-1.33h6.12M35.46,3.2h3.21c.62,0,1.16.43,1.3,1.04l.77,3.44M42.39,15.06l-.93-4.16M35.46,5.86h2.14l2.19,9.78M11.82,46.65c-.64,1.5-2.14,2.56-3.88,2.56-2.33,0-4.22-1.89-4.22-4.22s1.89-4.22,4.22-4.22c1.74,0,3.23,1.05,3.88,2.56M15.38,46.65c-.76,3.41-3.8,5.97-7.44,5.97-4.21,0-7.62-3.42-7.62-7.63s3.41-7.63,7.62-7.63c3.64,0,6.68,2.55,7.44,5.97M48.51,40.83c1.96.36,3.44,2.08,3.44,4.15,0,2.33-1.89,4.22-4.22,4.22s-4.22-1.89-4.22-4.22c0-1.41.69-2.65,1.75-3.42M47.73,37.36h0c4.21,0,7.62,3.41,7.62,7.63s-3.41,7.63-7.62,7.63-7.62-3.42-7.62-7.63c0-3.05,1.79-5.68,4.37-6.9M15.38,46.65h18.21v1.34c0,1.34-1.09,2.43-2.42,2.43H13.29M4.63,38.11l-.04-.08c-.72-1.48.21-3.23,1.83-3.46.5-.07,1-.11,1.52-.11,1.41,0,2.75.28,3.98.78M14.76,36.98c1.86,1.59,3.16,3.81,3.56,6.34"/>
  </g>
</svg>