<?xml version="1.0" encoding="UTF-8"?>
<svg id="Camada_2" data-name="Camada 2" xmlns="http://www.w3.org/2000/svg" viewBox="0 0 63.98 50.93">
  <defs>
    <style>
      .cls-1 {
        fill: none;
        stroke: #8e8572;
        stroke-miterlimit: 10;
        stroke-width: .65px;
      }
    </style>
  </defs>
  <g id="Camada_1-2" data-name="Camada 1">
    <path class="cls-1" d="M53.76,8.78l-5.94,10.46h5.94v6.27l5.94-10.46h-5.94v-6.27ZM16.16,2.42h3.96M16.16,6.6h3.96M28.03,4.51h0c0,2.31-1.77,4.18-3.96,4.18h-3.96V.32h3.96c2.19,0,3.96,1.87,3.96,4.18ZM47.84,38.06h11.87c2.18,0,3.95-1.87,3.95-4.17V8.77c0-2.31-1.77-4.18-3.95-4.18h-31.68M39.91,42.24h3.96M4.28,42.24h3.96M26.16,46.43h5.83v-2.1c0-2.31-1.77-4.18-3.95-4.18h-7.93c-2.18,0-3.95,1.87-3.95,4.18v2.1h5.83M14.63,34.94h18.88M6.26,27.6h-3.96c-1.09,0-1.98-.94-1.98-2.09s.89-2.09,1.98-2.09h5.76l-1.8,4.18ZM41.89,27.6h3.96c1.09,0,1.98-.94,1.98-2.09s-.89-2.09-1.98-2.09h-5.76l1.8,4.18ZM30.12,17.15h4.72c1.55,0,2.95.96,3.6,2.44l3.45,8.01h-23.65M14.08,27.6h-7.81l3.45-8.01c.64-1.49,2.05-2.44,3.6-2.44h12.64M35.95,46.43h9.44v2.16c0,1.11-.86,2.02-1.91,2.02h-5.62c-1.05,0-1.91-.91-1.91-2.02v-2.16ZM2.76,46.43h9.44v2.16c0,1.11-.86,2.02-1.91,2.02h-5.62c-1.06,0-1.91-.91-1.91-2.02v-2.16ZM36.47,38.06l7.39-2.09v-6.27l-4.44,3.68-5.91,1.56,2.96,3.12ZM11.67,38.06l-7.39-2.09v-6.27l4.44,3.68,5.91,1.56-2.96,3.12ZM18.24,27.6h23.65l4.78,5.05c.74.78,1.16,1.84,1.16,2.95v8.8c0,1.12-.86,2.02-1.91,2.02h-19.76M14.08,27.6h-7.81l-4.78,5.05c-.74.78-1.16,1.84-1.16,2.95v8.8c0,1.12.86,2.02,1.91,2.02h19.76"/>
  </g>
</svg>