<?xml version="1.0" encoding="UTF-8"?>
<svg id="Camada_2" data-name="Camada 2" xmlns="http://www.w3.org/2000/svg" viewBox="0 0 61.4 58.37">
  <defs>
    <style>
      .cls-1 {
        fill: none;
        stroke: #8e8572;
        stroke-miterlimit: 10;
        stroke-width: .65px;
      }
    </style>
  </defs>
  <g id="Camada_1-2" data-name="Camada 1">
    <path class="cls-1" d="M61.08,35.86H.33v-6.07h60.75v6.07ZM55.84,6.95H5.56V.33h50.28v6.62ZM7.79,6.95v22.72M13.34,6.95v22.72M48.06,6.95v22.72M53.61,6.95v22.72M7.79,35.86v22.19M13.34,35.86v22.19M48.06,35.86v22.19M53.61,35.86v22.19M7.79,58.05h45.82M17.81,25.87c0,.45-.36.81-.81.81s-.82-.36-.82-.81.36-.81.82-.81.81.36.81.81ZM21.73,25.87c0,.45-.36.81-.81.81s-.81-.36-.81-.81.36-.81.81-.81.81.36.81.81ZM25.64,25.87c0,.45-.36.81-.81.81s-.81-.36-.81-.81.36-.81.81-.81.81.36.81.81ZM29.56,25.87c0,.45-.36.81-.81.81s-.81-.36-.81-.81.36-.81.81-.81.81.36.81.81ZM33.47,25.87c0,.45-.36.81-.81.81s-.82-.36-.82-.81.36-.81.82-.81.81.36.81.81ZM37.39,25.87c0,.45-.36.81-.81.81s-.81-.36-.81-.81.36-.81.81-.81.81.36.81.81ZM41.3,25.87c0,.45-.36.81-.81.81s-.81-.36-.81-.81.36-.81.81-.81.81.36.81.81ZM45.21,25.87c0,.45-.36.81-.81.81s-.82-.36-.82-.81.36-.81.82-.81.81.36.81.81ZM17.81,22.1c0,.45-.36.81-.81.81s-.82-.36-.82-.81.36-.81.82-.81.81.36.81.81ZM21.73,22.1c0,.45-.36.81-.81.81s-.81-.36-.81-.81.36-.81.81-.81.81.36.81.81ZM25.64,22.1c0,.45-.36.81-.81.81s-.81-.36-.81-.81.36-.81.81-.81.81.36.81.81ZM29.56,22.1c0,.45-.36.81-.81.81s-.81-.36-.81-.81.36-.81.81-.81.81.36.81.81ZM33.47,22.1c0,.45-.36.81-.81.81s-.82-.36-.82-.81.36-.81.82-.81.81.36.81.81ZM37.39,22.1c0,.45-.36.81-.81.81s-.81-.36-.81-.81.36-.81.81-.81.81.36.81.81ZM41.3,22.1c0,.45-.36.81-.81.81s-.81-.36-.81-.81.36-.81.81-.81.81.36.81.81ZM45.21,22.1c0,.45-.36.81-.81.81s-.82-.36-.82-.81.36-.81.82-.81.81.36.81.81ZM17.81,14.57c0,.45-.36.82-.81.82s-.82-.36-.82-.82.36-.81.82-.81.81.36.81.81ZM21.73,14.57c0,.45-.36.82-.81.82s-.81-.36-.81-.82.36-.81.81-.81.81.36.81.81ZM25.64,14.57c0,.45-.36.82-.81.82s-.81-.36-.81-.82.36-.81.81-.81.81.36.81.81ZM29.56,14.57c0,.45-.36.82-.81.82s-.81-.36-.81-.82.36-.81.81-.81.81.36.81.81ZM33.47,14.57c0,.45-.36.82-.81.82s-.82-.36-.82-.82.36-.81.82-.81.81.36.81.81ZM37.39,14.57c0,.45-.36.82-.81.82s-.81-.36-.81-.82.36-.81.81-.81.81.36.81.81ZM41.3,14.57c0,.45-.36.82-.81.82s-.81-.36-.81-.82.36-.81.81-.81.81.36.81.81ZM45.21,14.57c0,.45-.36.82-.81.82s-.82-.36-.82-.82.36-.81.82-.81.81.36.81.81ZM17.81,10.8c0,.45-.36.82-.81.82s-.82-.36-.82-.82.36-.81.82-.81.81.36.81.81ZM21.73,10.8c0,.45-.36.82-.81.82s-.81-.36-.81-.82.36-.81.81-.81.81.36.81.81ZM25.64,10.8c0,.45-.36.82-.81.82s-.81-.36-.81-.82.36-.81.81-.81.81.36.81.81ZM29.56,10.8c0,.45-.36.82-.81.82s-.81-.36-.81-.82.36-.81.81-.81.81.36.81.81ZM33.47,10.8c0,.45-.36.82-.81.82s-.82-.36-.82-.82.36-.81.82-.81.81.36.81.81ZM37.39,10.8c0,.45-.36.82-.81.82s-.81-.36-.81-.82.36-.81.81-.81.81.36.81.81ZM41.3,10.8c0,.45-.36.82-.81.82s-.81-.36-.81-.82.36-.81.81-.81.81.36.81.81ZM45.21,10.8c0,.45-.36.82-.81.82s-.82-.36-.82-.82.36-.81.82-.81.81.36.81.81ZM13.34,18.33h34.73"/>
  </g>
</svg>