<?xml version="1.0" encoding="UTF-8"?>
<svg id="Camada_2" data-name="Camada 2" xmlns="http://www.w3.org/2000/svg" viewBox="0 0 61.3 48.44">
  <defs>
    <style>
      .cls-1 {
        fill: none;
        stroke: #8e8572;
        stroke-miterlimit: 10;
        stroke-width: .66px;
      }
    </style>
  </defs>
  <g id="Camada_1-2" data-name="Camada 1">
    <path class="cls-1" d="M16.84,25.79h-5.53M16.84,22.55h-1.73M4,45.09c3.95-1.71,6.72-5.65,6.72-10.23,0-5-3.29-9.22-7.82-10.64M1.54,18.5h19.53c.67,0,1.21-.54,1.21-1.21v-1.9c0-.67-.54-1.21-1.21-1.21H1.54c-.67,0-1.21.54-1.21,1.21v1.9c0,.67.54,1.21,1.21,1.21ZM2.8,30.63l.87,16.33c.03.64.56,1.15,1.21,1.15h12.87c.64,0,1.17-.5,1.21-1.15l1.49-28.02M2.18,18.95l.62,11.69M18.96,13.8v-1.77c0-.67-.54-1.21-1.21-1.21H4.86c-.67,0-1.21.54-1.21,1.21v1.77M45.38,42.67h1.73M31,7.99h13.48c.52,0,.98-.33,1.14-.82l2.17-6.38M18.49.77l2.17,6.41c.17.49.63.82,1.15.82h9.73M51.14,31.94l-1.76-30.47c-.04-.64-.57-1.14-1.21-1.14h-30.06c-.64,0-1.17.5-1.21,1.14l-.52,9.06M18.31,48.11h32.49c.69,0,1.25-.58,1.21-1.28l-.86-14.89M20.04,33.96h17.35c.67,0,1.21.54,1.21,1.21v6.3c0,.67-.54,1.21-1.21,1.21h-17.73M20.7,22.56h9.63c.67,0,1.21.54,1.21,1.21v5.14c0,.67-.54,1.21-1.21,1.21h-10.07M50.85,23.9h8.91c.67,0,1.21.54,1.21,1.21v2.57c0,.67-.54,1.21-1.21,1.21h-8.67M51.36,48.11h6.05c.64,0,1.17-.5,1.21-1.15l.84-18.09"/>
  </g>
</svg>