<?xml version="1.0" encoding="UTF-8"?>
<svg id="Camada_2" data-name="Camada 2" xmlns="http://www.w3.org/2000/svg" viewBox="0 0 59.38 58.95">
  <defs>
    <style>
      .cls-1 {
        fill: none;
        stroke: #8e8572;
        stroke-miterlimit: 10;
        stroke-width: .56px;
      }
    </style>
  </defs>
  <g id="Camada_1-2" data-name="Camada 1">
    <path class="cls-1" d="M2.79,38.95h53.8M21.94,10.51l-5.16-5.16M37.44,10.51l5.16-5.16M29.69,7.3V0M11.43,18.26h7.3M40.65,18.26h7.3M40.65,18.26c0-6.05-4.9-10.95-10.95-10.95s-10.95,4.9-10.95,10.95c0,1.28.23,2.51.64,3.65h20.64c.41-1.14.64-2.37.64-3.65ZM41.86,58.67h-24.34M24.82,48.69h9.74l2.43,9.98h-14.61l2.43-9.98ZM44.36,48.69l-2.43-19.48M29.69,48.69v-19.48M15.02,48.69l2.43-19.48M5.23,29.21h48.93l4.87,19.48H.36l4.87-19.48Z"/>
  </g>
</svg>