<?xml version="1.0" encoding="UTF-8"?>
<svg id="Camada_2" data-name="Camada 2" xmlns="http://www.w3.org/2000/svg" viewBox="0 0 67.93 44.97">
  <defs>
    <style>
      .cls-1 {
        fill: none;
        stroke: #8e8572;
        stroke-miterlimit: 10;
        stroke-width: .65px;
      }
    </style>
  </defs>
  <g id="Camada_1-2" data-name="Camada 1">
    <path class="cls-1" d="M20.09,13.95l1.53,2.83c.88,1.64.68,3.65-.52,5.08l-2.48,2.96-5.79-10.87-2.17-4.07L6.06,1.23h5.17c1.25,0,2.4.69,2.99,1.79l3.7,6.87M34.37,19.49h-9.17c-1.34,0-2.61.59-3.47,1.62l-3.1,3.7h44.34v-2.73c0-1.43-1.16-2.59-2.59-2.59h-4.42M57.31,19.49h-18.1M9.42,17.4l-3.1,7.42M42.65,24.82h-4.84l-6.28-9.72c-.47-.72-1.26-1.15-2.11-1.15H12.83l-2.17-4.07h18.75c2.24,0,4.3,1.12,5.52,3l7.72,11.93ZM52.63,32.39h5.25l4.02,10.46c.33.87-.31,1.8-1.23,1.8h-2c-.8,0-1.51-.49-1.8-1.24l-4.24-11.02ZM4.55.32h-2.24c-.9,0-1.48.96-1.05,1.76l12.1,22.73h5.25L6.06,1.23c-.3-.56-.87-.9-1.5-.9ZM18.62,32.39h-5.25l-4.02,10.46c-.33.87.31,1.8,1.23,1.8h2c.8,0,1.51-.49,1.8-1.24l4.23-11.02ZM18.62,32.39H1.83c-.83,0-1.51-.68-1.51-1.51v-4.56c0-.83.67-1.51,1.51-1.51h64.26c.83,0,1.51.67,1.51,1.51v4.56c0,.83-.67,1.51-1.51,1.51H18.62Z"/>
  </g>
</svg>