<?xml version="1.0" encoding="UTF-8"?>
<svg id="Camada_2" data-name="Camada 2" xmlns="http://www.w3.org/2000/svg" viewBox="0 0 64.44 64.44">
  <defs>
    <style>
      .cls-1 {
        fill: none;
        stroke: #8e8572;
        stroke-miterlimit: 10;
        stroke-width: .65px;
      }
    </style>
  </defs>
  <g id="Camada_1-2" data-name="Camada 1">
    <path class="cls-1" d="M13.42,6.45C18.7,2.6,25.19.33,32.22.33c17.61,0,31.89,14.28,31.89,31.89s-14.28,31.89-31.89,31.89S.33,49.83.33,32.22C.33,23.62,3.73,15.81,9.26,10.08M32.22,28.39V8.5c0-1.85,1.63-3.28,3.47-3.04,4.87.62,9.33,2.55,13.03,5.41,1.46,1.13,1.58,3.28.28,4.59l-14.07,14.07M28.39,32.22H8.5c-1.85,0-3.28-1.63-3.04-3.47.62-4.87,2.55-9.33,5.4-13.03,1.13-1.46,3.28-1.58,4.59-.28l14.07,14.07M32.22,36.04v19.89c0,1.85-1.63,3.28-3.47,3.04-4.87-.62-9.33-2.54-13.03-5.4-1.46-1.13-1.58-3.28-.28-4.59l14.07-14.07M36.04,32.22h19.89c1.85,0,3.28,1.63,3.04,3.47-.62,4.87-2.55,9.33-5.4,13.03-1.13,1.46-3.28,1.58-4.59.28l-14.07-14.07M36.04,32.22c0,2.11-1.71,3.83-3.83,3.83s-3.83-1.71-3.83-3.83,1.71-3.83,3.83-3.83,3.83,1.71,3.83,3.83ZM57.16,21.99c-1.74-4.25-4.55-7.96-8.08-10.8M45.56,18.87c1.75,1.75,3.16,3.85,4.12,6.18M21.98,7.28c-4.25,1.74-7.96,4.55-10.79,8.08M18.87,18.87c1.75-1.75,3.85-3.16,6.18-4.12M7.28,42.45c1.74,4.25,4.55,7.96,8.08,10.79M18.87,45.56c-1.75-1.75-3.16-3.85-4.12-6.18M42.45,57.15c4.25-1.74,7.96-4.55,10.79-8.08M45.56,45.56c-1.75,1.75-3.85,3.16-6.18,4.12"/>
  </g>
</svg>