<?xml version="1.0" encoding="UTF-8"?>
<svg id="Camada_2" data-name="Camada 2" xmlns="http://www.w3.org/2000/svg" viewBox="0 0 50.41 64.93">
  <defs>
    <style>
      .cls-1 {
        fill: none;
        stroke: #8e8572;
        stroke-miterlimit: 10;
        stroke-width: .65px;
      }
    </style>
  </defs>
  <g id="Camada_1-2" data-name="Camada 1">
    <path class="cls-1" d="M10.19,50.05s2.35-1.75,3.51-4.18c.24-.5.75-.82,1.3-.82.21,0,.43.05.62.14.35.17.61.46.74.82.13.36.11.75-.06,1.1-1.32,2.75-3.65,4.68-4.27,5.15M8.37,47.92c.36-.29,2.01-1.67,2.82-3.37.71-1.49,2.24-2.45,3.89-2.45.64,0,1.28.15,1.86.42,1.04.5,1.82,1.37,2.2,2.45.38,1.09.32,2.26-.18,3.29-1.05,2.19-2.57,3.94-3.76,5.1M.33,38.38h27.11M27.43,57.04H.33M.33,32.98h27.11M35.96,14.47H15.73c-2.04,0-3.69,1.65-3.69,3.69s1.65,3.69,3.69,3.69h32.89c.81,0,1.47-.66,1.47-1.47v-4.43c0-.82-.66-1.48-1.47-1.48h-14.49M43.26,21.84h-5.29v-7.38h5.29v7.38ZM21.29,22.12c-1.42,2.64-4.21,4.44-7.42,4.44-4.64,0-8.41-3.76-8.41-8.41s3.76-8.41,8.41-8.41c3.19,0,5.97,1.78,7.39,4.4M.33,28.13v32.89c0,1.98,1.61,3.59,3.59,3.59h11.87M12.97,64.61h10.87c1.98,0,3.59-1.61,3.59-3.59V22.12M27.43,14.47V3.92c0-1.98-1.61-3.59-3.59-3.59H3.91C1.93.33.33,1.93.33,3.92v25.28"/>
  </g>
</svg>