<?xml version="1.0" encoding="UTF-8"?>
<svg id="Camada_2" data-name="Camada 2" xmlns="http://www.w3.org/2000/svg" viewBox="0 0 48.1 56.18">
  <defs>
    <style>
      .cls-1 {
        fill: none;
        stroke: #8e8572;
        stroke-miterlimit: 10;
        stroke-width: .66px;
      }
    </style>
  </defs>
  <g id="Camada_1-2" data-name="Camada 1">
    <path class="cls-1" d="M18.96,55.83l2.09-11.73h6l2.09,11.73M19.26,39.73c.6,1.48,1.2,2.95,1.79,4.43h6c.6-1.48,1.19-2.96,1.79-4.43M36.12,14.02v8c0,6.7-5.43,12.17-12.07,12.17s-12.07-5.48-12.07-12.17v-8M36.04,49.05h5.02M12.75,34.52v8.37l11.3-7.58,11.3,7.58v-8.22M17.83,32.47l-12.97,4.95c-2.83,1.08-4.53,3.78-4.53,6.83v11.59h47.44v-11.59c0-3.05-1.7-5.74-4.53-6.83l-12.29-4.72M11.95,13.01h24.2c0,3.8-3.08,6.91-6.85,6.91h-10.5c-3.77,0-6.85-3.1-6.85-6.91ZM7.5,5.53L24.05.35l16.62,5.18-4.63,7.48H12.06l-4.56-7.48Z"/>
  </g>
</svg>