<?xml version="1.0" encoding="UTF-8"?>
<svg id="Camada_2" data-name="Camada 2" xmlns="http://www.w3.org/2000/svg" viewBox="0 0 62.32 51.52">
  <defs>
    <style>
      .cls-1, .cls-2 {
        fill: none;
        stroke: #8e8572;
        stroke-linecap: round;
        stroke-linejoin: round;
        stroke-width: .65px;
      }

      .cls-2 {
        stroke-dasharray: 0 0 0 0 0 0 2.56 2.56 2.56 2.56 2.56 2.56;
        stroke-dashoffset: 5.11px;
      }
    </style>
  </defs>
  <g id="Camada_1-2" data-name="Camada 1">
    <g>
      <path class="cls-1" d="M35.1,29.59h-7.87c-.41,0-.78-.25-.93-.64l-1.91-4.99c-.25-.65.23-1.35.93-1.35h11.7c.7,0,1.18.7.93,1.35l-1.91,4.99c-.15.38-.52.64-.93.64ZM46.95,33.98v2.09c0,2.54,2.06,4.6,4.6,4.6h2.09v-2.09c0-2.54-2.06-4.6-4.6-4.6h-2.09ZM60.33,29.59h-2.09c-2.54,0-4.6,2.06-4.6,4.6v2.09h2.09c2.54,0,4.6-2.06,4.6-4.6v-2.09ZM53.64,46.85v-10.56M1.99,33.98v2.09c0,2.54,2.06,4.6,4.6,4.6h2.09v-2.09c0-2.54-2.06-4.6-4.6-4.6H1.99ZM15.37,29.59h-2.09c-2.54,0-4.6,2.06-4.6,4.6v2.09h2.09c2.54,0,4.6-2.06,4.6-4.6v-2.09ZM8.68,46.85v-10.56M50.3,51.19h10.71c.55,0,.99-.44.99-.99v-2.36c0-.55-.44-.99-.99-.99H1.32c-.55,0-.99.44-.99.99v2.36c0,.55.44.99.99.99h51.43M24.27,46.85l.57-4.57c.09-.75.73-1.31,1.48-1.31h9.69c.75,0,1.39.56,1.48,1.31l.57,4.57M28.14,40.97v-4.32M28.14,38.81v-9.21M34.18,40.97v-11.38"/>
      <path class="cls-2" d="M34.8,10.99C41.41,2.24,49.73-1.13,59.77.9"/>
      <path class="cls-2" d="M35.08,16.9c9.2-5.97,18.17-6.29,26.91-.96"/>
      <path class="cls-2" d="M3.18.9c10.04-2.02,18.36,1.34,24.97,10.09"/>
      <path class="cls-2" d="M.95,15.94c8.74-5.33,17.71-5.01,26.91.96"/>
    </g>
  </g>
</svg>