<?xml version="1.0" encoding="UTF-8"?>
<svg id="Camada_2" data-name="Camada 2" xmlns="http://www.w3.org/2000/svg" viewBox="0 0 46.38 46.95">
  <defs>
    <style>
      .cls-1 {
        fill: none;
        stroke: #8e8572;
        stroke-miterlimit: 10;
        stroke-width: .56px;
      }
    </style>
  </defs>
  <g id="Camada_1-2" data-name="Camada 1">
    <path class="cls-1" d="M39.68,25.83l3.59,2.07M44.14,21.92l-2.55-.68M39.68,6.79l3.59-2.07M44.14,10.69l-2.56.69M42.23,16.31h4.15M6.7,25.83l-3.59,2.07M4.8,21.24l-2.55.68M6.7,6.79l-3.59-2.07M4.8,11.38l-2.56-.69M4.15,16.31H0M27.72,40.63v2.64c0,.25-.07.49-.2.7l-1.13,1.81c-.34.55-.95.89-1.6.89h-3.19c-.65,0-1.25-.33-1.6-.89l-1.13-1.81c-.13-.21-.2-.45-.2-.7v-2.64M24.82,40.63h3.65c.42,0,.75-.34.75-.75v-1.51c0-.42-.34-.76-.75-.76h-10.56c-.42,0-.75.34-.75.76v1.51c0,.42.34.75.75.75h3.65M15.21,2.41c2.35-1.35,5.08-2.13,7.98-2.13,8.85,0,16.03,7.18,16.03,16.03,0,3.46-1.09,6.66-2.96,9.27M27.72,37.61l1.87-5.42c.29-.85.87-1.57,1.65-2.02,1.04-.61,2.01-1.32,2.88-2.14M12.56,4.32c-3.31,2.94-5.4,7.22-5.4,11.99,0,5.92,3.21,11.09,7.99,13.87.77.45,1.35,1.17,1.65,2.02l1.87,5.42M32.75,16.02c0,2.49-1.38,4.47-3.58,4.51-.73.01-2.62.02-2.62.02l-.02-9.05h2.56c2.41,0,3.66,2.03,3.66,4.53ZM23.33,16.02h-3.53M23.61,11.49h-3.81v9.05h3.81M13.63,11.5v9.04h3.17M18.01,43.65h10.37"/>
  </g>
</svg>