<?xml version="1.0" encoding="UTF-8"?>
<svg id="Camada_2" data-name="Camada 2" xmlns="http://www.w3.org/2000/svg" viewBox="0 0 47.98 50.31">
  <defs>
    <style>
      .cls-1 {
        fill: none;
        stroke: #8e8572;
        stroke-miterlimit: 10;
        stroke-width: .65px;
      }
    </style>
  </defs>
  <g id="Camada_1-2" data-name="Camada 1">
    <path class="cls-1" d="M36.06,41.12l1.95,1.96,3.49-3.5M38.93,32.47c4.82,0,8.72,3.92,8.72,8.76s-3.9,8.76-8.72,8.76-8.72-3.92-8.72-8.76,3.91-8.76,8.72-8.76ZM16.75,21.73l.92-1.61c.91-1.59,3.19-1.59,4.1,0l.92,1.61M25.98,27.44l1.1,1.91c.91,1.59-.23,3.57-2.05,3.57h-2.02M16.44,32.92h-2.02c-1.82,0-2.96-1.98-2.05-3.57l1.1-1.91M12.83,6.48h13.78v6.18h-13.78v-6.18ZM0,12.66h39.45M36.49,12.66l-1.85-7.48c-.76-2.86-3.35-4.86-6.3-4.86H11.11c-2.95,0-5.54,1.99-6.3,4.86l-1.85,7.48M37.49,12.66l-2.32,20.66M1.96,12.66l4.2,37.32h27.13l.22-1.9"/>
  </g>
</svg>