<?xml version="1.0" encoding="UTF-8"?>
<svg id="Camada_2" data-name="Camada 2" xmlns="http://www.w3.org/2000/svg" viewBox="0 0 59.62 56.78">
  <defs>
    <style>
      .cls-1 {
        fill: none;
        stroke: #8e8572;
        stroke-miterlimit: 13.33;
        stroke-width: .65px;
      }
    </style>
  </defs>
  <g id="Camada_1-2" data-name="Camada 1">
    <path class="cls-1" d="M41.16,56.45h7.57v-10.71h-7.57v10.71ZM24.45,31.24v8.5h10.71v-8.5M10.89,56.45h7.57v-10.71h-7.57v10.71ZM48.73,47.31h10.89M59.62,54.88h-10.89M10.89,47.31H0M0,54.88h10.89M18.46,54.88h22.71M26.02,39.74v3.78c0,2.09-1.69,3.78-3.78,3.78h-3.78M33.59,39.74v3.78c0,2.09,1.7,3.78,3.78,3.78h3.78M33.59,20.82c0,2.09-1.69,3.78-3.78,3.78s-3.78-1.69-3.78-3.78,1.7-3.78,3.78-3.78,3.78,1.7,3.78,3.78ZM41.07,4.99l-3.79,3.79M18.55,4.99l3.79,3.79M19.24,16.25h-5.36M45.73,16.25h-5.36M29.81,9.47v7.57M29.81.33v5.36M45.73,16.25c0,8.8-7.13,15.92-15.92,15.92s-15.92-7.13-15.92-15.92S21.02.33,29.81.33s15.92,7.13,15.92,15.92Z"/>
  </g>
</svg>