<?xml version="1.0" encoding="UTF-8"?>
<svg id="Camada_2" data-name="Camada 2" xmlns="http://www.w3.org/2000/svg" viewBox="0 0 70.74 49.3">
  <defs>
    <style>
      .cls-1 {
        fill: none;
        stroke: #8e8572;
        stroke-miterlimit: 10;
        stroke-width: .65px;
      }
    </style>
  </defs>
  <g id="Camada_1-2" data-name="Camada 1">
    <path class="cls-1" d="M38.25,41.43h8.63M49.29,33.14h-11.04M38.25,36.73v7.23c0,.39.32.71.71.71h8.08M48.75,29.89h-9.79c-.39,0-.71.32-.71.71v4.22M46.63,29.89h-4.97v-1.92c0-.42.34-.76.77-.76h3.45c.42,0,.76.34.76.76v1.92ZM44.86,24.37h-1.44c-.28,0-.51.23-.51.51v2.33h2.45v-2.33c0-.28-.23-.51-.51-.51ZM56.3,24.37h-4.47v-4.15c0-.42.34-.76.76-.76h2.94c.42,0,.77.34.77.76v4.15ZM59.39,27.21v-.81c0-1.12-.91-2.03-2.04-2.03h-6.56c-1.13,0-2.04.91-2.04,2.03v4.67c0,.34.06.68.17,1l.63,1.81c.23.65.23,1.35,0,2l-.63,1.81c-.11.32-.17.66-.17,1v4.97c0,.56.46,1.01,1.02,1.01h8.6c.56,0,1.02-.45,1.02-1.01v-4.97c0-.34-.06-.68-.17-1l-.63-1.81c-.23-.65-.23-1.35,0-2l.63-1.81c.11-.32.17-.66.17-1v-1.72M57.17,30.05c0,1.71-1.39,3.09-3.1,3.09s-3.1-1.38-3.1-3.09,1.39-3.09,3.1-3.09,3.1,1.38,3.1,3.09ZM52,36.73h4.14M52,39.34h4.14M39.8,21.93h.01c.09-.04.09-.16,0-.2h-.01c-.54-.18-.97-.61-1.15-1.15,0,0,0,0,0-.01-.03-.09-.16-.09-.19,0h0c-.18.55-.61.98-1.15,1.16h-.01c-.09.03-.09.16,0,.19h.01c.54.18.97.61,1.15,1.15,0,0,0,0,0,.01.03.09.16.09.19,0h0c.18-.55.61-.98,1.15-1.16ZM48.48,19.15h.02c.13-.05.13-.24,0-.28h-.02c-.79-.26-1.4-.88-1.66-1.66,0,0,0-.01,0-.02-.04-.13-.23-.13-.28,0v.02c-.27.78-.88,1.4-1.67,1.66h-.02c-.13.05-.13.24,0,.28h.02c.79.26,1.41.88,1.67,1.66,0,0,0,.01,0,.02.05.13.23.13.28,0v-.02c.27-.78.88-1.4,1.67-1.66ZM70.42,48.97H.33v-4.3h70.09v4.3ZM70.42,4.62H.33V.33h70.09v4.3ZM5.39,44.68V4.62M1.37,44.68V4.62M69.37,44.68V4.62M65.36,44.68V4.62"/>
  </g>
</svg>