<?xml version="1.0" encoding="UTF-8"?>
<svg id="Camada_2" data-name="Camada 2" xmlns="http://www.w3.org/2000/svg" viewBox="0 0 43.98 53.99">
  <defs>
    <style>
      .cls-1 {
        fill: none;
        stroke: #8e8572;
        stroke-miterlimit: 10;
        stroke-width: .65px;
      }
    </style>
  </defs>
  <g id="Camada_1-2" data-name="Camada 1">
    <path class="cls-1" d="M40.6,41.15H3.54c-1.69,0-3.05-1.37-3.05-3.05V3.38C.48,1.69,1.85.33,3.54.33h37.06c1.69,0,3.05,1.37,3.05,3.05v34.72c0,1.69-1.37,3.05-3.05,3.05ZM.25,37.07h43.64M.25,32.99h43.64M.25,28.9h43.64M.25,24.82h43.64M.25,20.74h43.64M.25,16.66h43.64M.25,12.57h43.64M.25,8.49h43.64M.25,4.41h43.64M38.24,53.66H5.6c-2.92,0-5.28-2.36-5.28-5.28v-4.61c0-.41.34-.75.75-.75h.94c.42,0,.75.34.75.75v4.61c0,1.57,1.27,2.83,2.83,2.83h32.63c1.56,0,2.84-1.28,2.84-2.84v-4.61c0-.41.34-.75.75-.75h.94c.41,0,.75.34.75.75v4.61c0,2.92-2.36,5.28-5.28,5.28Z"/>
  </g>
</svg>