<?xml version="1.0" encoding="UTF-8"?>
<svg id="Camada_2" data-name="Camada 2" xmlns="http://www.w3.org/2000/svg" viewBox="0 0 49.15 55.89">
  <defs>
    <style>
      .cls-1 {
        fill: none;
        stroke: #8e8572;
        stroke-miterlimit: 10;
        stroke-width: .65px;
      }
    </style>
  </defs>
  <g id="Camada_1-2" data-name="Camada 1">
    <path class="cls-1" d="M34.97.32c-3.13,3.11-7.05,5.25-11.29,6.25-1.52.36-2.56,1.75-2.56,3.31v7.64c0,1.9-1.55,3.44-3.46,3.44s-3.46-1.54-3.46-3.44v-7.64c0-1.55-1.04-2.95-2.56-3.31C7.38,5.58,3.46,3.43.32.32M41.9,7.2h3.46c1.91,0,3.46,1.54,3.46,3.44v7.24c0,1.75-1.33,3.22-3.08,3.42l-21.55,2.76c-1.75.19-3.08,1.67-3.08,3.42v3.8M14.18,14.08H.32V.32h41.57v13.75h-20.79M21.11,55.57c-3.58,0-6.27-3.25-5.57-6.74l2.1-17.56h6.93l2.1,17.56c.7,3.49-1.98,6.74-5.57,6.74Z"/>
  </g>
</svg>