<?xml version="1.0" encoding="UTF-8"?>
<svg id="Camada_2" data-name="Camada 2" xmlns="http://www.w3.org/2000/svg" viewBox="0 0 53.99 45.19">
  <defs>
    <style>
      .cls-1 {
        fill: none;
        stroke: #8e8572;
        stroke-miterlimit: 10;
        stroke-width: .65px;
      }
    </style>
  </defs>
  <g id="Camada_1-2" data-name="Camada 1">
    <path class="cls-1" d="M6.91,19.37c1.13-1.41,1.12-3.41,0-4.82h0c-1.13-1.42-1.13-3.42,0-4.83M14.96,19.37c1.13-1.41,1.13-3.41,0-4.82h0c-1.13-1.42-1.13-3.42,0-4.83M23,19.37c1.13-1.41,1.13-3.41,0-4.82h0c-1.13-1.42-1.13-3.42,0-4.83M.2,28.66c1.42,1.12,3.43,1.12,4.85,0h.02c1.42-1.14,3.43-1.13,4.85,0h0c1.42,1.13,3.43,1.13,4.85,0h.02c1.42-1.14,3.43-1.14,4.85-.01h.02c1.42,1.14,3.43,1.13,4.85,0h0c1.42-1.13,3.43-1.13,4.85,0l.02.02c1.42,1.12,3.43,1.12,4.84,0h.02c1.42-1.14,3.43-1.13,4.85-.01h0c1.42,1.13,3.43,1.13,4.86,0,1.42-1.12,3.43-1.12,4.85,0h.02c1.42,1.13,3.43,1.13,4.85,0M.2,44.03c1.42,1.12,3.43,1.12,4.85,0l.02-.02c1.42-1.12,3.43-1.12,4.85,0h0c1.42,1.13,3.43,1.13,4.85,0l.02-.02c1.42-1.12,3.43-1.12,4.85,0l.02.02c1.42,1.12,3.43,1.12,4.85,0h0c1.42-1.13,3.43-1.13,4.85,0l.02.02c1.42,1.12,3.43,1.12,4.84,0l.02-.02c1.42-1.12,3.43-1.12,4.85,0,1.42,1.13,3.43,1.12,4.86,0,1.42-1.12,3.43-1.13,4.85,0h.02c1.42,1.13,3.43,1.13,4.85,0M.2,36.34c1.42,1.12,3.43,1.12,4.85,0h.02c1.42-1.14,3.43-1.13,4.85-.01h0c1.42,1.13,3.43,1.13,4.85,0h.02c1.42-1.14,3.43-1.14,4.85-.02l.02.02c1.42,1.12,3.43,1.12,4.85,0h0c1.42-1.13,3.43-1.13,4.85,0l.02.02c1.42,1.12,3.43,1.12,4.84,0h.02c1.42-1.14,3.43-1.13,4.85-.01,1.42,1.13,3.43,1.13,4.86,0,1.42-1.12,3.43-1.13,4.85,0h.02c1.42,1.13,3.43,1.13,4.85,0M53.67,5.46v-1.24c0-2.15-1.75-3.89-3.91-3.89s-3.91,1.74-3.91,3.89v23.58M40.62,5.46v-1.24c0-2.15-1.75-3.89-3.91-3.89s-3.91,1.74-3.91,3.89v24.55M32.8,10.6h13.04M32.8,16.66h13.04M32.8,22.71h13.04"/>
  </g>
</svg>