<?xml version="1.0" encoding="UTF-8"?>
<svg id="Camada_2" data-name="Camada 2" xmlns="http://www.w3.org/2000/svg" viewBox="0 0 81.49 31.9">
  <defs>
    <style>
      .cls-1 {
        fill: none;
        stroke: #8e8572;
        stroke-linecap: round;
        stroke-linejoin: round;
        stroke-width: .65px;
      }
    </style>
  </defs>
  <g id="Camada_1-2" data-name="Camada 1">
    <path class="cls-1" d="M35.53.33l1.3,9.12M22.49,9.44V.33M77.25,15.95h3.15M.33,13.35h2.61M27.71,21.16h27.38M59,9.44H10.4c-1,0-1.63-1.08-1.13-1.95L13.36.33M9.45,25.07l-5.77-.82c-1.93-.28-3.36-1.92-3.36-3.87v-8.85c0-1.36.43-2.68,1.21-3.78l3.75-5.24C6.26,1.14,7.85.33,9.53.33h30.19c3.22,0,6.38.92,9.1,2.65l10.18,6.47s11.82,0,19.19,3.42c1.83.85,2.97,2.7,2.97,4.71v6.2c0,1.44-1.17,2.6-2.61,2.6M65.9,24.15l1.84,1.84M73.34,25.07c0,3.6-2.92,6.51-6.52,6.51s-6.52-2.92-6.52-6.51,2.92-6.51,6.52-6.51,6.52,2.92,6.52,6.51ZM16.89,24.15l-1.84,1.84M22.49,26.37h37.81M22.49,25.07c0,3.6-2.92,6.51-6.52,6.51s-6.52-2.92-6.52-6.51,2.92-6.51,6.52-6.51,6.52,2.92,6.52,6.51Z"/>
  </g>
</svg>