<?xml version="1.0" encoding="UTF-8"?>
<svg id="Camada_2" data-name="Camada 2" xmlns="http://www.w3.org/2000/svg" viewBox="0 0 52.51 52.51">
  <defs>
    <style>
      .cls-1 {
        fill: none;
        stroke: #8e8572;
        stroke-miterlimit: 10;
        stroke-width: .65px;
      }
    </style>
  </defs>
  <g id="Camada_1-2" data-name="Camada 1">
    <path class="cls-1" d="M20.35,46.2c0-2.22-1.8-4.01-4.01-4.01-.49,0-.95.09-1.38.24-.89-1.23-2.34-2.03-3.97-2.03-1.92,0-3.59,1.11-4.39,2.72-.17-.02-.34-.04-.52-.04-1.97,0-3.56,1.6-3.56,3.57h17.81c.02-.15.03-.3.03-.45ZM36.98,28.56l2.95-2.95M36.82,17.38v28.95M24.16,18.13l-3.48,3.48-3.48-3.48M25.07,26.19l-4.39,4.39-4.39-4.39M20.68,11.95v34.38M30.35,18.17c.28-.92.42-1.89.42-2.9,0-3.15-1.44-5.97-3.71-7.82.03-.23.04-.47.04-.71,0-3.55-2.88-6.43-6.43-6.43s-6.43,2.88-6.43,6.43c0,.24.01.48.04.71-2.26,1.85-3.71,4.67-3.71,7.82,0,1.01.15,1.98.42,2.9-1.73,2.14-2.77,4.86-2.77,7.83,0,6.87,5.57,12.44,12.44,12.44s12.44-5.57,12.44-12.44c0-2.97-1.04-5.69-2.77-7.83ZM29.4,10.03c.4-3.75,3.57-6.66,7.42-6.66,4.12,0,7.46,3.34,7.46,7.46v20.16c0,4.12-3.34,7.46-7.46,7.46-2.94,0-5.47-1.7-6.69-4.16M33.12,52.18H.33v-3.44c0-1.16.94-2.1,2.1-2.1h47.66c1.16,0,2.1.94,2.1,2.1v3.44h-21.16"/>
  </g>
</svg>