<?xml version="1.0" encoding="UTF-8"?>
<svg id="Camada_2" data-name="Camada 2" xmlns="http://www.w3.org/2000/svg" viewBox="0 0 50.85 50.77">
  <defs>
    <style>
      .cls-1 {
        fill: none;
        stroke: #8e8572;
        stroke-miterlimit: 10;
        stroke-width: .65px;
      }
    </style>
  </defs>
  <g id="Camada_1-2" data-name="Camada 1">
    <path class="cls-1" d="M34.24,38.01c3.04-2.85,5.08-6.71,5.08-10.01v-3M11.53,25.01v3c0,5,4.68,11.27,10.42,13.4,2.51.93,4.46.93,6.96,0,1.02-.38,2.01-.89,2.95-1.5M23.8,19.44h-5.31c-3.58,0-1.07,5.56-6.21,5.56h-.75v-1.19c0-10.1,6.95-15.15,13.9-15.15s13.9,5.05,13.9,15.15v1.19h-.75c-5.14,0-2.63-5.56-6.21-5.56h-5.04M2.68,32.14c1.29,0,2.35-1.06,2.35-2.36s-1.06-2.36-2.35-2.36-2.35,1.06-2.35,2.36,1.06,2.36,2.35,2.36ZM48.17,32.14c1.3,0,2.35-1.06,2.35-2.36s-1.06-2.36-2.35-2.36-2.35,1.06-2.35,2.36,1.06,2.36,2.35,2.36ZM5.03,29.78h40.79M.43,10.86V1.95C.43,1.06,1.15.33,2.04.33h8.89M50.42,10.86V1.95c0-.89-.73-1.62-1.61-1.62h-8.89M.43,39.92v8.91c0,.89.73,1.62,1.62,1.62h8.89M50.42,39.92v8.91c0,.89-.73,1.62-1.61,1.62h-8.89"/>
  </g>
</svg>