<?xml version="1.0" encoding="UTF-8"?>
<svg id="Camada_2" data-name="Camada 2" xmlns="http://www.w3.org/2000/svg" viewBox="0 0 53.41 52.36">
  <defs>
    <style>
      .cls-1 {
        fill: none;
        stroke: #8e8572;
        stroke-miterlimit: 10;
        stroke-width: .65px;
      }
    </style>
  </defs>
  <g id="Camada_1-2" data-name="Camada 1">
    <path class="cls-1" d="M1.72,1.7C3.59-.13,6.61-.13,8.48,1.7c1.86,1.83,1.86,4.79,0,6.62-1.87,1.83-4.89,1.83-6.76,0C-.14,6.49-.14,3.52,1.72,1.7ZM51.69,1.7c-1.86-1.83-4.89-1.83-6.76,0-1.86,1.83-1.86,4.79,0,6.62,1.86,1.83,4.89,1.83,6.76,0,1.86-1.83,1.86-4.79,0-6.62ZM1.72,50.66c1.86,1.83,4.89,1.83,6.76,0,1.86-1.83,1.86-4.79,0-6.62-1.87-1.83-4.89-1.83-6.76,0-1.87,1.83-1.87,4.79,0,6.62ZM51.69,50.66c-1.86,1.83-4.89,1.83-6.76,0-1.86-1.83-1.86-4.79,0-6.62,1.86-1.83,4.89-1.83,6.76,0,1.86,1.83,1.86,4.79,0,6.62ZM36.72,44.83l3.71,3.63c.61.6,1.64.6,2.25,0l.86-.84M48.58,42.68l.86-.84c.61-.6.61-1.6,0-2.21l-3.7-3.63M16.69,44.83l-3.7,3.63c-.62.6-1.64.6-2.25,0l-.86-.84M4.84,42.68l-.86-.84c-.62-.6-.62-1.6,0-2.21l3.7-3.63M19.84,46.15l-4.6,4.51c-1.86,1.82-4.9,1.82-6.76,0M1.72,44.04c-1.86-1.82-1.86-4.8,0-6.62l4.6-4.51M16.69,7.53l-3.7-3.63c-.62-.6-1.64-.6-2.25,0l-.86.84M4.84,9.68l-.86.84c-.62.6-.62,1.6,0,2.21l3.7,3.63M19.84,6.21L15.24,1.7C13.38-.12,10.34-.12,8.48,1.7M1.72,14.94l4.6,4.51M1.72,8.32c-1.86,1.82-1.86,4.8,0,6.62M36.72,7.53l3.71-3.63c.61-.6,1.64-.6,2.25,0l.86.84M48.58,9.68l.86.84c.61.6.61,1.6,0,2.21l-3.7,3.63M33.57,6.21l4.6-4.51c1.86-1.82,4.9-1.82,6.76,0M51.69,8.32c1.86,1.82,1.86,4.8,0,6.62l-4.6,4.51M33.57,46.15l4.6,4.51c1.86,1.82,4.9,1.82,6.76,0M51.69,44.04c1.86-1.82,1.86-4.8,0-6.62l-4.6-4.51M42.88,40.05c.1-.11.2-.23.3-.34.12-.14.23-.27.34-.41.09-.12.19-.23.28-.35.11-.14.22-.28.32-.43.09-.12.18-.24.26-.36.11-.15.21-.3.31-.45.08-.12.16-.24.24-.37.1-.15.19-.31.29-.46.07-.12.15-.25.22-.37.09-.16.18-.32.27-.48.07-.12.13-.25.2-.38.09-.17.17-.33.25-.5.06-.12.12-.25.17-.38.08-.18.16-.35.24-.53.05-.12.1-.24.15-.37.08-.19.15-.37.22-.56.04-.11.08-.23.12-.34.07-.2.14-.4.21-.61.02-.08.04-.15.06-.23.24-.78.42-1.58.57-2.4.02-.09.04-.17.05-.26.04-.21.06-.43.09-.65.01-.1.03-.2.04-.31v-.02c.08-.76.13-1.54.13-2.32s-.05-1.55-.13-2.31v-.03c0-.08-.02-.15-.03-.23-.03-.21-.05-.43-.09-.64-.02-.11-.04-.22-.06-.33-.04-.21-.08-.42-.12-.63-.02-.11-.05-.22-.07-.33-.05-.21-.09-.42-.15-.62-.03-.11-.06-.22-.09-.32-.05-.2-.11-.41-.17-.61-.03-.11-.07-.22-.1-.33-.06-.2-.13-.4-.2-.59-.04-.11-.08-.22-.12-.32-.07-.19-.15-.38-.22-.57-.04-.11-.09-.21-.14-.32-.08-.19-.16-.37-.25-.55-.05-.11-.11-.22-.16-.32-.09-.18-.17-.36-.27-.53-.06-.11-.12-.22-.18-.33-.09-.17-.19-.34-.28-.51-.06-.11-.13-.22-.2-.33-.1-.16-.2-.32-.3-.48-.07-.11-.15-.22-.22-.33-.1-.15-.2-.31-.31-.45-.08-.11-.16-.22-.24-.33-.11-.14-.21-.29-.32-.43-.09-.11-.18-.22-.27-.33-.11-.13-.22-.27-.33-.4-.1-.11-.19-.22-.29-.33-.11-.13-.22-.25-.34-.38-.1-.11-.21-.22-.32-.33-.11-.12-.23-.23-.35-.35-.11-.11-.23-.22-.34-.32-.11-.11-.23-.22-.35-.32-.12-.11-.24-.22-.37-.32-.12-.1-.23-.2-.35-.3-.13-.11-.26-.21-.4-.32-.12-.09-.23-.18-.35-.27-.14-.11-.28-.21-.42-.31-.12-.08-.23-.16-.35-.24-.15-.1-.3-.2-.45-.3-.12-.08-.23-.15-.35-.22-.16-.1-.32-.19-.48-.29-.12-.07-.23-.14-.35-.2-.17-.09-.34-.18-.5-.27-.12-.06-.23-.12-.35-.18-.17-.09-.35-.17-.53-.25-.12-.05-.23-.11-.34-.16-.18-.08-.36-.16-.55-.24-.11-.05-.23-.1-.34-.14-.19-.08-.38-.15-.57-.21-.11-.04-.23-.08-.34-.12-.19-.07-.39-.13-.59-.19-.12-.04-.23-.07-.35-.11-.2-.06-.4-.11-.61-.17-.12-.03-.23-.06-.34-.09-.21-.05-.42-.1-.63-.14-.11-.02-.23-.05-.35-.07-.21-.04-.42-.08-.63-.11-.12-.02-.23-.04-.35-.06-.21-.03-.43-.06-.65-.08-.08,0-.16-.02-.24-.03h-.03c-.77-.08-1.56-.13-2.36-.13s-1.59.05-2.37.13h-.02c-.11.01-.22.03-.33.04-.22.03-.43.05-.65.09-.1.01-.2.03-.29.05-.82.14-1.62.32-2.41.55-.08.02-.16.04-.24.07-.21.06-.41.13-.62.2-.12.04-.23.08-.35.12-.19.07-.38.14-.57.21-.12.05-.25.09-.38.15-.18.07-.36.15-.54.23-.13.06-.26.11-.39.17-.17.08-.34.16-.52.25-.13.06-.26.13-.39.19-.17.09-.33.18-.49.27-.13.07-.26.14-.38.22-.16.09-.32.19-.47.28-.13.08-.25.16-.38.24-.15.1-.3.2-.45.3-.12.08-.25.17-.37.26-.15.1-.29.21-.44.32-.12.09-.24.18-.36.28-.14.11-.28.22-.42.33-.12.1-.23.2-.35.29-.13.12-.27.23-.4.35-.12.1-.23.21-.34.32-.12.12-.25.24-.38.36-.11.11-.22.23-.33.34-.12.12-.24.24-.35.37-.12.13-.23.26-.34.39-.16.18-.31.36-.46.54-.15.18-.3.37-.45.56-.09.12-.17.24-.26.36-.11.15-.22.29-.32.44-.09.12-.17.25-.25.38-.1.15-.2.29-.29.44-.08.13-.16.27-.24.4-.09.15-.18.3-.27.45-.08.14-.15.27-.22.41-.08.15-.16.31-.24.47-.07.14-.14.28-.2.42-.08.16-.15.32-.22.48-.06.14-.12.28-.18.43-.07.16-.13.33-.2.5-.06.14-.11.29-.16.44-.06.17-.12.34-.17.51-.05.15-.1.29-.14.44-.05.17-.1.35-.15.52-.04.15-.08.3-.12.44-.05.18-.09.36-.13.55-.03.15-.07.29-.1.44-.04.19-.07.38-.1.57-.03.15-.05.29-.07.44-.03.2-.05.4-.08.6-.02.14-.04.28-.05.42-.02.23-.04.45-.05.68,0,.12-.02.24-.03.36-.02.33-.03.67-.03,1.01,0,.01,0,.02,0,.04,0,11.64,9.63,21.07,21.5,21.07.36,0,.72,0,1.07-.03.12,0,.23-.02.35-.03.24-.01.47-.03.71-.05.14-.01.28-.03.42-.05.21-.03.42-.05.62-.08.15-.02.29-.05.44-.07.2-.03.39-.07.58-.1.15-.03.3-.06.45-.09.19-.04.37-.08.56-.13.15-.04.3-.08.45-.12.18-.05.36-.1.54-.15.15-.04.3-.09.45-.14.17-.05.35-.11.52-.17.15-.05.3-.1.44-.16.17-.06.34-.13.51-.2.15-.06.29-.12.43-.18.17-.07.33-.14.49-.22.14-.06.28-.13.43-.2.16-.08.32-.16.48-.24.14-.07.28-.14.41-.22.16-.08.31-.17.47-.26.13-.08.27-.15.4-.23.16-.09.31-.19.46-.29.13-.08.26-.16.38-.24.15-.1.3-.21.45-.32.12-.08.24-.17.36-.25.2-.15.4-.3.59-.46.18-.14.35-.28.53-.43.13-.11.27-.22.39-.34.13-.11.25-.23.38-.35.12-.11.23-.21.35-.32.12-.12.24-.25.36-.37.11-.11.22-.22.32-.33.12-.13.24-.26.35-.39ZM14.32,19.56l5.63-5.52,6.76,6.62-5.63,5.52-6.76-6.62ZM26.71,31.7l5.63-5.52,6.76,6.62-5.63,5.52-6.76-6.62ZM17.14,16.8l6.76,6.62"/>
  </g>
</svg>