<?xml version="1.0" encoding="UTF-8"?>
<svg id="Camada_2" data-name="Camada 2" xmlns="http://www.w3.org/2000/svg" viewBox="0 0 55.71 55.58">
  <defs>
    <style>
      .cls-1 {
        fill: none;
        stroke: #8e8572;
        stroke-linecap: round;
        stroke-linejoin: round;
        stroke-width: .65px;
      }
    </style>
  </defs>
  <g id="Camada_1-2" data-name="Camada 1">
    <g>
      <g>
        <path class="cls-1" d="M2.67,13.29C.37,10.04-.82,4.12,4.18,2.5c2.32-.76,5.76-.97,7.67-2.17,1.65,3,.96,4.78-1.4,6.13-1.07.61-2.43,1.16-3.71,1.84-2.02,1.07-3.86,2.47-4.07,4.99Z"/>
        <path class="cls-1" d="M2.67,13.29v1.38c0,1.7-.02,1.89-1.2,3.26-.79.92-1.14,2.17-1.14,3.47v10.83c0,3.22,2.65,5.86,5.88,5.86M29.39,47.58c0-3.08-1.19-5.02-5.02-5.33v-8.06c0-1.55-1.28-2.82-2.83-2.82h-9.47M12.08,26.37v-4.47c0-1.59-.79-2.91-1.71-4.09-1.07-1.37-.87-3.25.83-4.24,1.41-.83,2.89-2.52,2.71-4.72-.11-1.37-.98-3.24-1.68-3.93"/>
      </g>
      <rect class="cls-1" x=".32" y="38.09" width="17.94" height="17.17"/>
      <polyline class="cls-1" points="18.27 47.58 55.38 47.58 55.38 55.26 43.46 55.26 33.4 55.26 18.27 55.26"/>
      <path class="cls-1" d="M5.88,21.39v4.98h7.09c4.5,0,4.56,3.03,4.48,5H6.47c-2.96,0-6.15-1.08-6.15-5.54v-4.43"/>
      <line class="cls-1" x1="14.09" y1="31.37" x2="14.09" y2="38.09"/>
      <line class="cls-1" x1=".33" y1="38.09" x2="18.27" y2="38.09"/>
      <line class="cls-1" x1=".33" y1="43.81" x2="18.27" y2="43.81"/>
      <line class="cls-1" x1=".33" y1="49.53" x2="18.27" y2="49.53"/>
      <polyline class="cls-1" points="55.38 47.58 55.38 26.98 34.77 26.98 34.77 47.58"/>
      <line class="cls-1" x1="41.64" y1="26.98" x2="41.64" y2="47.58"/>
      <line class="cls-1" x1="48.51" y1="26.98" x2="48.51" y2="47.58"/>
      <g>
        <path class="cls-1" d="M51.94,12.23c-.09.09-.8.67-.76,1.75-.04,1.08.67,1.66.76,1.75.09.09.8.67.76,1.75.04,1.07-.67,1.66-.76,1.75"/>
        <path class="cls-1" d="M45.07,12.23c-.09.09-.8.67-.76,1.75-.04,1.08.67,1.66.76,1.75.09.09.8.67.76,1.75.03,1.07-.67,1.66-.76,1.75"/>
        <path class="cls-1" d="M38.22,12.23c-.09.09-.8.67-.76,1.75-.04,1.08.67,1.66.76,1.75.09.09.8.67.76,1.75.04,1.07-.67,1.66-.76,1.75"/>
      </g>
    </g>
  </g>
</svg>