<?xml version="1.0" encoding="UTF-8"?>
<svg id="Camada_2" data-name="Camada 2" xmlns="http://www.w3.org/2000/svg" viewBox="0 0 54.82 54.19">
  <defs>
    <style>
      .cls-1 {
        fill: none;
        stroke: #8e8572;
        stroke-miterlimit: 10;
        stroke-width: .65px;
      }
    </style>
  </defs>
  <g id="Camada_1-2" data-name="Camada 1">
    <path class="cls-1" d="M49.83,21.03l-9.88,9.77M35.17,26.08l9.89-9.77c1.32-1.3,3.45-1.3,4.77,0,1.32,1.3,1.32,3.41,0,4.71l-9.88,9.77,7.5-7.42c1.32-1.3,3.45-1.3,4.77,0,1.32,1.3,1.32,3.41,0,4.71l-10.03,9.91c-5.05,4.99-11.64,8.19-18.73,9.08l-12.91-12.76,2.39-19.26c0-1.84,1.51-3.33,3.37-3.33s3.37,1.49,3.37,3.33v7.48l15.7-15.52c1.32-1.3,3.45-1.3,4.77,0,1.32,1.3,1.32,3.41,0,4.71l-9.74,9.63,12.13-11.98c1.32-1.3,3.45-1.3,4.77,0,1.32,1.3,1.32,3.41,0,4.71l-4.62,4.57M41.01,53.87c7.45,0,13.49-5.97,13.49-13.33M41.01,47.2c3.72,0,6.74-2.98,6.74-6.67M13.81.32C6.36.32.32,6.29.32,13.65M13.81,6.99c-3.72,0-6.74,2.98-6.74,6.67"/>
  </g>
</svg>