<?xml version="1.0" encoding="UTF-8"?>
<svg id="Camada_2" data-name="Camada 2" xmlns="http://www.w3.org/2000/svg" viewBox="0 0 48.11 49.42">
  <defs>
    <style>
      .cls-1 {
        fill: none;
        stroke: #8e8572;
        stroke-miterlimit: 10;
        stroke-width: .66px;
      }
    </style>
  </defs>
  <g id="Camada_1-2" data-name="Camada 1">
    <path class="cls-1" d="M37.68.33c5.58,0,10.11,4.6,10.11,10.27M37.68,5.17c2.95,0,5.35,2.43,5.35,5.43M8.83,43.57l-2.99-3.04c-.99-1.01-.99-2.65,0-3.66.99-1.01,2.61-1.01,3.6,0l2.99,3.04c.99,1.01.99,2.65,0,3.66-.99,1.01-2.61,1.01-3.6,0ZM36.74,24.16l3.49-3.55c1.66-1.68,1.66-4.41,0-6.1l-5.88-5.97c-1.66-1.68-4.34-1.68-6,0l-13.18,13.39c-2.18,2.21-4.44,4.32-6.79,6.33l-5.42,4.63c-3.31,2.83-3.53,7.93-.47,11.03l2.91,2.95c3.06,3.11,8.08,2.89,10.86-.47l4.56-5.51c1.98-2.39,4.06-4.69,6.24-6.9l9.69-9.84Z"/>
  </g>
</svg>