<?xml version="1.0" encoding="UTF-8"?>
<svg id="Camada_2" data-name="Camada 2" xmlns="http://www.w3.org/2000/svg" viewBox="0 0 42.59 52.21">
  <defs>
    <style>
      .cls-1 {
        fill: none;
        stroke: #8e8572;
        stroke-miterlimit: 10;
        stroke-width: .65px;
      }
    </style>
  </defs>
  <g id="Camada_1-2" data-name="Camada 1">
    <path class="cls-1" d="M12.52,19.96h-1.63c-.15,0-.28-.13-.28-.28v-1.64c0-.15.13-.28.28-.28h1.63c.15,0,.28.13.28.28v1.64c0,.15-.13.28-.28.28ZM10.3,15.98h-3.69l1.85-3.09,1.85,3.09ZM9.89,30.85c0,.8-.64,1.44-1.44,1.44s-1.44-.64-1.44-1.44.64-1.44,1.44-1.44,1.44.64,1.44,1.44ZM6.3,21.06c0,.61-.49,1.1-1.1,1.1s-1.1-.49-1.1-1.1.49-1.1,1.1-1.1,1.1.49,1.1,1.1ZM11.7,19.96v1.53c0,.24-.09.47-.26.63l-2.99,2.99M5.2,22.15v1.53c0,.24.1.46.26.63l2.99,3M8.45,15.98v13.43M16.58,16.77v13.37c0,2.43-1.97,4.4-4.39,4.4h-7.47c-2.43,0-4.39-1.97-4.39-4.4V11.11c0-.25.2-.45.46-.45h15.35c.25,0,.45.21.45.45v6.84M1.09,9.16v1.5M15.81,10.66V.78c0-.25-.2-.46-.45-.46H1.55c-.25,0-.46.21-.46.46v8.6M6.76,5.83h-2.09c-.23,0-.42-.19-.42-.42v-2.09c0-.23.19-.42.42-.42h2.09c.23,0,.42.19.42.42v2.09c0,.23-.19.42-.42.42ZM12.24,5.83h-2.09c-.23,0-.42-.19-.42-.42v-2.09c0-.23.19-.42.42-.42h2.09c.23,0,.42.19.42.42v2.09c0,.23-.19.42-.42.42ZM11.18,40.79h-5.46c-.4,0-.72-.33-.72-.73v-5.54h6.91v5.54c0,.4-.32.73-.72.73ZM26.44,38.07V10.41c0-3.19,2.58-5.77,5.76-5.77s5.76,2.58,5.76,5.77v40.89c0,.32.26.58.58.58h3.16c.32,0,.58-.26.58-.58V10.41c0-5.57-4.51-10.09-10.07-10.09s-10.07,4.52-10.07,10.09v31.38c0,3.19-2.58,5.77-5.76,5.77s-5.76-2.58-5.76-5.77v-1h-4.31v1c0,5.57,4.51,10.09,10.07,10.09s10.07-4.52,10.07-10.09v-4.14M5,36.56h1.89M5,38.77h1.89M10.02,36.56h1.89M10.02,38.77h1.89M7.47,8.54c0-.54.44-.98.98-.98s.98.44.98.98"/>
  </g>
</svg>