<?xml version="1.0" encoding="UTF-8"?>
<svg id="Camada_2" data-name="Camada 2" xmlns="http://www.w3.org/2000/svg" viewBox="0 0 53.41 53.7">
  <defs>
    <style>
      .cls-1 {
        fill: none;
        stroke: #8e8572;
        stroke-miterlimit: 10;
        stroke-width: .65px;
      }
    </style>
  </defs>
  <g id="Camada_1-2" data-name="Camada 1">
    <path class="cls-1" d="M43.78,21.98c-4.75-5.12-10.91-7.49-17.08-7.49s-12.33,2.37-17.08,7.49M26.71,37.98c1.54,0,2.79,1.26,2.79,2.81s-1.25,2.81-2.79,2.81-2.79-1.26-2.79-2.81,1.25-2.81,2.79-2.81M32.73,34.08c-1.63-1.63-3.95-2.62-6.03-2.62h-.1c-2.08,0-4.43.98-6.06,2.62M38.48,28.01c-3.32-3.35-7.53-5.09-11.81-5.09s-8.5,1.74-11.81,5.09M41.91.32H11.5C5.33.32.32,5.36.32,11.56v30.57c0,6.21,5,11.24,11.18,11.24h30.41c6.17,0,11.18-5.03,11.18-11.24V11.56c0-6.21-5-11.24-11.18-11.24Z"/>
  </g>
</svg>